<mxfile host="app.diagrams.net" modified="2023-01-13T10:53:37.938Z" agent="5.0 (Macintosh; Intel Mac OS X 10_15_7) AppleWebKit/605.1.15 (KHTML, like Gecko) Version/16.2 Safari/605.1.15" etag="6zK4luLzlgI1VHz5pZHT" version="20.8.4" type="github">
  <diagram id="kAxy7GY6eTMZanumjE_k" name="페이지-1">
    <mxGraphModel dx="1158" dy="714" grid="1" gridSize="10" guides="1" tooltips="1" connect="1" arrows="1" fold="1" page="1" pageScale="1" pageWidth="1169" pageHeight="827" math="0" shadow="0">
      <root>
        <mxCell id="0" />
        <mxCell id="1" parent="0" />
        <mxCell id="CN9grJ1vndZCzqCMUK1b-1" value="" style="html=1;shadow=0;dashed=0;align=center;verticalAlign=middle;shape=mxgraph.arrows2.arrow;dy=0.6;dx=40;notch=0;" parent="1" vertex="1">
          <mxGeometry x="358" y="241" width="100" height="70" as="geometry" />
        </mxCell>
        <mxCell id="CN9grJ1vndZCzqCMUK1b-2" value="" style="html=1;shadow=0;dashed=0;align=center;verticalAlign=middle;shape=mxgraph.arrows2.arrow;dy=0.6;dx=40;flipH=1;notch=0;" parent="1" vertex="1">
          <mxGeometry x="148" y="241" width="100" height="70" as="geometry" />
        </mxCell>
        <mxCell id="CN9grJ1vndZCzqCMUK1b-3" value="" style="html=1;shadow=0;dashed=0;align=center;verticalAlign=middle;shape=mxgraph.arrows2.arrow;dy=0.6;dx=40;direction=north;notch=0;" parent="1" vertex="1">
          <mxGeometry x="268" y="141" width="70" height="100" as="geometry" />
        </mxCell>
        <mxCell id="CN9grJ1vndZCzqCMUK1b-4" value="" style="html=1;shadow=0;dashed=0;align=center;verticalAlign=middle;shape=mxgraph.arrows2.arrow;dy=0.6;dx=40;direction=south;notch=0;" parent="1" vertex="1">
          <mxGeometry x="268" y="311" width="70" height="100" as="geometry" />
        </mxCell>
        <mxCell id="CN9grJ1vndZCzqCMUK1b-9" value="" style="html=1;shadow=0;dashed=1;align=center;verticalAlign=middle;shape=mxgraph.arrows2.arrow;dy=0.6;dx=40;notch=0;" parent="1" vertex="1">
          <mxGeometry x="800" y="241" width="100" height="70" as="geometry" />
        </mxCell>
        <mxCell id="CN9grJ1vndZCzqCMUK1b-10" value="" style="html=1;shadow=0;dashed=1;align=center;verticalAlign=middle;shape=mxgraph.arrows2.arrow;dy=0.6;dx=40;flipH=1;notch=0;" parent="1" vertex="1">
          <mxGeometry x="590" y="241" width="100" height="70" as="geometry" />
        </mxCell>
        <mxCell id="CN9grJ1vndZCzqCMUK1b-11" value="" style="html=1;shadow=0;dashed=0;align=center;verticalAlign=middle;shape=mxgraph.arrows2.arrow;dy=0.6;dx=40;direction=north;notch=0;" parent="1" vertex="1">
          <mxGeometry x="710" y="141" width="70" height="100" as="geometry" />
        </mxCell>
        <mxCell id="CN9grJ1vndZCzqCMUK1b-12" value="" style="html=1;shadow=0;dashed=1;align=center;verticalAlign=middle;shape=mxgraph.arrows2.arrow;dy=0.6;dx=40;direction=south;notch=0;" parent="1" vertex="1">
          <mxGeometry x="710" y="311" width="70" height="100" as="geometry" />
        </mxCell>
        <mxCell id="CN9grJ1vndZCzqCMUK1b-16" value="" style="curved=1;endArrow=classic;html=1;rounded=0;dashed=1;" parent="1" edge="1">
          <mxGeometry width="50" height="50" relative="1" as="geometry">
            <mxPoint x="794.9999999999998" y="159" as="sourcePoint" />
            <mxPoint x="864.9999999999998" y="219" as="targetPoint" />
            <Array as="points">
              <mxPoint x="874.9999999999995" y="159" />
            </Array>
          </mxGeometry>
        </mxCell>
        <mxCell id="CN9grJ1vndZCzqCMUK1b-17" value="90°" style="edgeLabel;html=1;align=center;verticalAlign=middle;resizable=0;points=[];fontSize=20;" parent="CN9grJ1vndZCzqCMUK1b-16" vertex="1" connectable="0">
          <mxGeometry x="-0.2333" y="6" relative="1" as="geometry">
            <mxPoint x="-1" as="offset" />
          </mxGeometry>
        </mxCell>
        <mxCell id="CN9grJ1vndZCzqCMUK1b-18" value="&amp;lt;그림 2-1&amp;gt; 4개의 화살표 이미지" style="text;html=1;strokeColor=none;fillColor=none;align=center;verticalAlign=middle;whiteSpace=wrap;rounded=0;dashed=1;fontSize=20;" parent="1" vertex="1">
          <mxGeometry x="128" y="441" width="342" height="30" as="geometry" />
        </mxCell>
        <mxCell id="CN9grJ1vndZCzqCMUK1b-19" value="&amp;lt;그림 2-2&amp;gt; &amp;nbsp;1개의 화살표 이미지를 회전" style="text;html=1;strokeColor=none;fillColor=none;align=center;verticalAlign=middle;whiteSpace=wrap;rounded=0;dashed=1;fontSize=20;" parent="1" vertex="1">
          <mxGeometry x="578" y="441" width="342" height="30" as="geometry" />
        </mxCell>
        <mxCell id="422qtvT163gtj_b05qDn-1" value="" style="shape=image;imageAspect=0;aspect=fixed;verticalLabelPosition=bottom;verticalAlign=top;image=data:image/png,iVBORw0KGgoAAAANSUhEUgAAA74AAAOiCAYAAABXagvhAAAABmJLR0QAAAAAAAD5Q7t/AAAACXBIWXMAAAMOAAADDgAKRc4IAAAACXZwQWcAAAO+AAADogCajbWjAACAAElEQVR42uzdd5gUVdqG8btnyDAKioqCogQBUUExK2ZR14RpVwUVc16zfmZR14xiXDOImF1zQsSEgqKIOSBizgklx/7+ONMz3QMqMNPd1VX377r6Yrdql6p+q3qYp+uc95QjSZJqagScDMwBvrYckiRJkqS46QdMAYYDK1gOSZIkSVKcbA18A6QrX7cAFZZFkiRJkhQHawLvUB1608As4GygvuWRJEmSJJWy1oShzekFvCYDB1oiSZIkSVKpWgIYQlbYbdlyvvD7DbCtpZIkSZIklZoGwAXAbCpDbkUF6cmTSZ977nzh9z2gmyWTJEmSJJWKFHAooYNzVcB99VXS6XR47bjjfOH3eWBFSydJkiRJKgU7Aj+QFWwHD64OvZlX587zhd87gOaWT5IkSZIUZesAH5IVaE8/ff7Qm06T/uGHMPw56387B7iQMExakiRJkqTIWRl4iazQu/vuCw69mdfo0fM99Z0KHEkYLi1JkiRJUmS0AO4jK8SuueZfh97M64475gu/PwA7W1JJkiRJUlQ0Ai4nDFVOA+kllyT9888LF3zTadJnnz1f+P0YWNfSSpIkSZKKrQz4NzCdrOA6btzCh97Ma4895gu/rwCrWGJJkiRJUjHtDvxMVmC9995FD72ZV7du84Xf+4GlLbMkSZIkqRg2AiaQFVT791/80JtOk/71V9JLL50TfOcCVxCGU0uSJEmSVDAdgFfJCr19+tQu9GZe48bN99R3OnACYVh1oS0BVHi5JUmSJClZlgEeISucrrde3YTezOv+++cLv78A/yzw+2wEDAQuBRp62SVJkiQpGZoA1xKGIKeB9DLLkP7997oNvuk06QsumC/8fgZsXKD3WQYcQ3jaPA043EsvSZIkSfFXDpwCzCQrkH7wQd2H3syrb9/5wu8bQKcCvNddyW3a9T2wo7eAJEmSJMVbH2ASWUH0kUfyF3ozr/XWmy/8Pgosl8f3uSE1mnZVvj4EengbSJIkSVI8bQF8QVYQvOii/IfedJr0lCmkW7XKCaDzgOuBpnl4nx2AUcwfejOvkUBbbwdJkiRJipfVgHFkBcCDDipM6M28PviAdFlZTgCdCZxOGH5dV1oCD/HnoTfzugdYyttCkiRJkuKhFfA0WcGvZ8/Cht7M6/HH5wugk4B96+h9NgauIatp11+85gKX4drCkiRJklTyKoBbCEOL00C6dWvS06YVJ/im06QvvXS+EPoVsGUt32c5cBIwg78PvdlrCx8LpLxNJEmSJKk01QPOBmZTGfbKy0l/+mnxQm/mdcgh84XQd4DVa/Fe9wZ+Y+FDb+b1E7C7t4okSZIklaaDgMlkBb1hw4ofejOvnj3nC6HDgNaL8T43Bz5n0UNv5jWB0AVakiRJklRCtgW+ISvgDRgQndCbTpOeOZP0SivNF0JvIwzPXlhdgLEsfujNvF4jdIOWJEmSJJWAbsB7ZAW744+PVujNvCZMIN2gQU4AnQ2cD9RfiPfZCniS2ofezOthYBlvH0mSJEmKthWB58kKdNtsE83Qm3kNHz5fAJ0MHMJfN51qBtxMVtOuOnjNI3SFbuJtJEmSJEnR1By4g6wwt8oqpGfPjnbwTadJDxw4Xwj9Htj+T95nPeAsYBZ1F3qz1xY+lbpdW1iSJEmSVAcaABcBc6gMcY0akf7qq+iH3szrhBPmC6EfAmsv4L0eAPxB3YfezOs3oI+3lCRJkiRFRwo4CphKVoB74YXSCb2Z1zbbzBdCXwDaZr3XXsDX5C/0Zl5fAJt5a0mSJElSNOwM/EBWcLvpptILvek06blzSXfsOF8IvQtYAliDsN5vukCvccBq3l6SJEmSVFzrAuPJCmynnlqaoTfz+uor0k2bztfp+WbgOQoXejOvp4Dlvc0kSZIkqTjaAaPICmo77VTaoTfzGjlyvgA6l7rt4Lwor5sJXaQlSZIkSQW0NHA/WQGtc+d4hN7Ma9CgooTcBb1mA+cQuklLkhQrLmMgSYqqRsB5hO7GKYCKChg3Dpo2jc+b7N4dZs6El18u+qmUEbpLf0+Y9ytJkiRJyqMy4ERgOllPJV99NV5Pe7NfO+0UmSe/3xK6SkuSJEmS8uifwC9kBbIhQ+IbejOvrl0jE37fB7p5G0qSJElSfmwMfEZWEDvrrPiH3nSa9Pffk27ePDLhdwSworejJEmSJNWtTsAbZAWwPfdMRujNvMaMiUzwTQN3AEt6W0qSJElS3VgOeJSs4NWtW7JCb+Z1992RCb5zgIuABt6ekqRSZldnSVIUNCEErD6ZDUstBW++CY0bJ68Yq68e/nzxxaKfShmwFmG+9RveppIkSZK0eOoBZwAzyXraOG5cMp/2Zr/23DMyT35/BHbyVpUkSZKkxbMvMImsoHXffYbezGvttSMTfscD63m7SpIkSdKi2RL4mqyAdcEFht3s16+/kl5mmciE35eBdt62kiRJkrRw1gDeIStY7buvQXdBr7ffjlSn5/uApbx9JUmSJOmvtQaGkRWo1lvPgPtXr4ceikzwnQsMBBp5G0uSSoVdnSVJhVYBXAbsntnQqhWMHQsNXDTnT3XuHOrz3HNFP5UU0A2YDIwhhGFJkiRJUqX6wPnAbCqfIJaVkf7gA5/oLuxr330j8+T3F2APb2lJkiRJqpYCDiE8KawKUI89Zphd1NeGG0Ym/H4GbOKtLUmSJEnB9sD3ZAWnSy81xC7Oa/Jk0q1bRyb8jgE6eXtLkiRJSroewIdkBaZDDzXA1ub10UekU6nIhN9HgWW9zSVJkiQlVVvgBbKC0qabGlzr4vXUU5EJvvOAG4Cm3u6SpCiyq7MkKZ+aE5a+2TGzYaWV4PXXodx/gWqtQweoqIBnnin6qaQI6zLPBEYTgrAkSZHhrx2SpHxpCJwLHASUQViO5/XXoWVLi1NXNtoIvvsuLAdVZPWAdYEvgXe8MpIkSZLirgw4BphK1pDY4cMdnpyv1xZbRGbY81fAVn4EJEmSJMXdrsDPZAWigQMNp/l8zZhBepVVIhN+3wJW92MgSZIkKa42BCaQFYROPNFgWojXxImkGzSITPgdBqzgx0GSJElS3HQARpEVgLbZxkBayNfzz0cm+KaBwUCFHwtJUrHZ3EqSVFdaAtcA22Q2dOgAr70GqZTFKZSVV4bll4fHH4/E6XQldHh+BTs9S5KKyOArSaoLjYH/AH0JS9vQtCm88QYsuaTFKbR11oEpU2D06KKfSjmwDvA9MM4rI0mSJKlUlQMnATPIGub60ksOOy72a7vtIjPk+TvgH35UJEmSJJWqvYDfyAo6t91m6IzCa+5c0p07Ryb8vg+s7cdFkiRJUqnZDPiCrIBz2mkGzii9vvmGdJMmkQm/LwAr+bGRJEmSVCq6AG+QFWx22smgGcXX6NGR6vR8N9Dcj48kqZBsbiVJWhzLAdcDm2Y2rLYavPyyhYmiNm2gXTt4+OFInE4Xwu8fI4G5Xh1JUiEYfCVJi6oZcCnwTyo7ODdvHjo4N21qcaKqWzeYNSsSX06UEeb6/gq87pWRJEmSFDX1gTOBWWQNXx0zxuHEpfLaddfIDHn+CdjVj5QkSZKkqOkH/EFWgLn7bsNkqb26dYtM+B0PbODHSpIkSVJU9AK+ISu4nHOOIbIUXz/+SHrJJSMTfkcD7f14SZIkSSq2NYF3yAose+5pgCzl15tvRqrT80NASz9mkqR8sbmVJOnvtAFuIGtI6lprwbPPWphStvzyoRP3Aw9E4nRWBRoDLwJzvDqSpLpm8JUk/ZUlgSuAXTIbllkmdHBu1MjilLquXSGVghdeKPqppIDuwBTgNcJTYEmS6ozBV5L0ZxoApwOHE5agAWD0aGjb1uLExeabw/jx8N57RT+VesC6wBdA8c9GkiRJUuylCIF3KllzMR96yLmxcX2tt15k5vt+BmzmR1CSJElSvu0E/EBWILnwQsNhnF+TJpFeZpnIhN+xQGc/hpIkSZLyZR3gI7KCyH77GQyT8Hr//Uh1en4SaOXHUZIkSVJdWxl4mawAssEGBsIkvR59NDLBdx5wI9DMj6UkqbZsbiVJylgKuArYLrOhdWt4/XVo0MDiJEWnTtCwIYwYUfRTSRHWj54JjCIEYUmSFovBV5IE0Ag4BziQEDgoK4MxY8J6r0qWnj3hyy/hrbeKfirlhKH33wHFPxtJkiRJJasMOA6YTtZQ06eecthv0l89e0Zm2PPXwDZ+VCVJkiQtrj2Bn8kKGpdfbujzRXrqVNKtW0cm/L4LrOHHVZIkSdKi2gj4lKyAceihBj5f1a9PPiFdVhaZ8DsCaOPHVpIkSdLC6giMIStYbL65Qc/X/K9hwyK1zNHtwJJ+fCVJi8LmVpKUTMsC1wJbZjassgq89hqU+y+DamjfHioq4JlnInE6q1f++TIw16sjSVoY/nojScnTBPgP0IfKDs4NGoRli1q2tDhasI02gkmTwpcjRVYGrE2Ylz7WKyNJWhgGX0lKlnLgROAEoF5m4/DhsNZaFkd/bbvtYNQomDix6KfSgLDM0UfAeK+MJEmSpGx9gd/ImjN5443OYfW18K9Zs0i3axeZ+b4fAz38WEuSJEnK2AL4kqzgcOKJBjlfi/768kvSDRpEJvyOBFbx4y1J+ispSyBJidAVuBPoltmw7bbw9NMWRovnpZdgs80iczr3AkcCv3plJEkL4hxfSYq/FYDrgY0zGzp1CnM1U379qcXUti2ssAI8/ngkTmc1wrzfl4A5Xh1JUk0GX0mKtwrgEmDPzIamTUMH5yVdCVW11KMHTJsWvkQpshTQHfid6rWpJUmqYvCVpPiqB5wGHENYAgaAF1+E1VazOKob22wDb74J44vfW7k+sC4wAfjQKyNJylZmCSQpllJAP+B4spYtGjIENtzQ4qhuPfIIdO4ciVNZGrgM2MirIknKZvCVpHjqBZxHGOoMwOmnw777WhjVvVQKXnghDKOPgFWAK4FVvTKSpAzbmkhS/HQH7gK6ZDb07g0PPWRhlF9jxsD660fmdB4BDgF+8spIkpzjK0nxshJwA2GuIwBrrhmexkn51ro1tGsHDz8cidPpBDQDXgBme3UkKdkMvpIUH82BAcDOVRuahw7OERmCqgTo1g3mzg3r/BZZClgTmA6Mxk7PkpRoBl9JiocGwNnAoWT1b3jlFejQweKosLbcEj74ILyKrB6wDvAF8K5XRpKSy+ZWklT6ygiB92iyvtC87z5Ye22Lo+K4777w9DcCmhPWst7cqyJJyWXwlaTStxPhaW+TzIZzz4U997QwKq7nngvD7SOgDaHTc1eviiQlk12dJam0rQ8MBaoGNO+1F9x9t4VRNLz9NnTvHpnTeRo4EPjOKyNJyeIcX0kqXe0JHZyrBpSuuy4MG2ZhFB2tWkHXrnD//ZE4nQ5AC+A5YJZXR5KSw+ArSaVpaeAqYNvMhmWXDeuoNmpkcRQtXbtCeTk8/3wkTmd1YC7wCjDPqyNJyWDwlaTS0wi4ANifrCkrr70GK61kcRRNm20GEyfCO+8U/VTKgR6E4c5veWUkKRlsbiVJpaWc0L05Z9miRx8NT9WkKBsyBNZbLxKnUgH8B+jlVZGkZDD4SlJp2R04nfDUF4ALL4SddrIwKg0jRoRh+RHQCrgCWMurIknxZ1dnSSodPYE7gLaZDf36waBBFkal5aOPoEuXyJzO84RpA195ZSQpvpzjK0mloTNwI7BaZkPPnvDIIxZGpadlS+jRIzLLbq0CLAeMAGZ6dSQpngy+khR9ywHXAptnNrRpA6++Cg0aWByVpk6doHFjePbZSJzOaoTfiUYSOj5LkmLG4CtJ0dYUuBjYi8rpKWVl8MYbYX1UqZRtsgl8+y28+WbRT6UMWBv4GRgLpL06khQvBl9Jiq56wEnAsZX/GYBhw2DddS2O4mGnncL6vl98UfRTqQ+sD3xc+ZIkxYhdnSUpuvYBTgGqBjQPGADbbGNhFC/DhoXh+xHQEriMEIAlSTFiV2dJiqatgduBFTIbjj0WBg60MIqnzz6DVVeFOXMicTqvAPsBE70ykhQPBl9Jip41CcsWrZnZsPXWMHy4hVG8DR8OvXpF5nQeBA4FfvHKSFLpc46vJEVLa+C/wIaZDe3bw6hRUO5PbMVc+/aw5JJh6HMEdAIaAS8C0XgOLUlabP4aJUnRsQQwANg1s6FBAxg7FpZayuIoGTbcECZPhtGji34qKaA78AcwBjs9S1JJM/hKUjQ0AE4DjiCr8eDzz8Oaa1ocJcu224bg++mnRT+VeoRGV58C73tlJKl02dVZkoovBfQDjidr2aKbboKePS2OkunJJ6Fdu0icSnPgEsBPoySVMIOvJBXfP4DzgKaZDSefDIccYmGUXOXl8NJL0LhxJE5nZeAKwrxfSVIJsquzJBVXD2Ao0DmzYccd4bHHLIwEMHIkbLppZE7nCeBA4EevjCSVFuf4SlLxtAVuIIRfALp0gZdfhpRfS0rhQ9IWVlwRHn00EqfTkdCE7nlgtldHkkqHwVeSiqMFcBVhmDMATZuGDs4VFRZHyrb22jBzZvhSqMhShPW1ZwCjgXleHUkqDQZfSSq8RsA5hCGTVb0WXn4ZOjmDUFqgrbeGcePg44+LfirlwLrA18DbXhlJKg02t5KkwioDDgWOJuvLxyFDYL31LI70Vx55JEwHiIAlgP8AW3tVJKk0GHwlqbB2Bc4mPPUF4IwzYN99LYy0MF58EZZYIhKn0gYYAKzuVZGk6LN9iiQVzobAHUD7zIY99oD777cw0qIYMwbWXz8yp/MssD/wrVdGkqLLOb6SVBgdgJuANTIbuneHESMsjLSoWreGjh3hwQcjcTrtgJbAc8BMr44kRZPBV5LybxngOmCrzIYWLUIH58aNLY60ONZcM/z54ouROJ3VCR2eX8ZOz5IUSQZfScqvJsAFQB+yppe8+iqssorFkWpj883hww/h/feLfiplwDrAj8BYr4wkRY/NrSQpf8oJ3ZsPJevn7f33Q7duFkeqC/feG6YNREBToD+wg1dFkqLH4CtJ+fMv4DSgQWZD//6hoZWkuvPCC7D00pE4lVbAZcDaXhVJiha7OktSfmwODAbaZjb07Qt33GFhpHx4++3IPPkFGAnsC3zhlZGkaHCOryTVvS6EDs6dMxvWXx+efNLCSPnSqlVoeHXffZE4nbaEp7/PATO8OpJUfAZfSapbywP/BTbJbFh2WXjjDWjY0OJI+dSlCzRoAM89F4nTWY3we9ZLwFyvjiQVl8FXkupOBXAxsCdZU0neeCOsOyop/3r2hM8+C0OfiyxFmOs7CRjjlZGk4rK5lSTVjXrA8UA/skLvY49B584WRyqk228P0wsioDFwFrCrV0WSisvgK0l1Yz/gJEIABuDii2HHHS2MVAzPPQfLLx+JU2kJXAps4FWRpOKxq7Mk1d62wG3ACpkNBx8MN99sYaRi+ugjWH11mBuNGbZjgD7ABK+MJBWec3wlqXa6ATcC7TMbNtsMHnzQwkjF1rIlrLMO3HVXJE6nNbASodPzNK+OJBWWwVeSFt+KwA3AepkNbdrAmDFQr57FkaKgY0do1gyGD4/E6XQizPt9AZjj1ZGkwjH4StLiaQ4MAHbJbKhXD958E5ZZxuJIUbLRRvD99zB2bNFPJQV0JzzxfRVIe3UkqTAMvpK06BoAZwCHk9UkcNgw6NHD4khRtOOO8MIL8MUXRT+VesA6wJfAu14ZSSoMuzpL0qJJAQcDx5L15eEVV8DWW1scKcqGD4eVVorEqbQALgI29apIUmHY1VmSFs3OwM3AspkNxx8fgq+k6PvsM+jSBWbOjMTpvAXsA3zolZGk/DL4StLCWxe4E+iY2bDttvD00xZGKiUjRkRqhMZTwEHAd14ZScof5/hK0sJpB9xEaEwDQPv2MGoUlDlpRCqtD3M7WH55ePzxSJxOR2AJ4HlglldHkvLD4CtJf29pYCCwXWZDo0Ywbhw0b25xpFK0zjowdWr48ioC1iQsb/QKMM+rI0l1z+ArSX+tEXAecABZ00Oefx5WX93iSKWsVy8YPRo+/bTop1IOrE0Y7vyWV0aS6p4D9CTpz5UBR1Jj2aKbb4ZNNrE4Uhw8/TR07BiJU1kCuADYxqsiSXXP4CtJf2534HTCU18A/u//4OCDLYwUF6lUGMHRrFkkTmcF4Eqgm1dGkuqWXZ0lacE2BoYCK2c27LILPPywhZHi6JVXIjWSYwRhesVXXhlJqhvO8ZWk+XUidHBeLbOhSxcYOdLCSHG10kqwyiqR+XKrHdCSEICjseKwJJU4g68k5VoWuAbYIrOhoiJ0cG7a1OJIcda9O8yeHZkvuVYnTEkbCcz16khS7Rh8JalaE+AiYB+ypoK8/HJkmt9IyrOttoK33oKPPy76qZQBawE/A2O9MpJUOza3kqSgHDgeOJCs0Dt0KKy7rsWRkuThhyOzXFlT4FxgB6+KJNWOwVeSgr2Bk4EGmQ1nnw19+lgYKYmeew5atIjEqSwLDAD8Ck6SasGuzpIEWwJDgNaZDf/6F9xzj4WRkuyNNyI14uNlYH9goldGkhadc3wlJd3qhA7OVbN4u3eHZ5+1MFLSrbACrLYaPPBAJE5nJcI6vyOA6V4dSVo0Bl9JSbYCcD2wUWbDUkvBm29Co0YWRxJ07QqpFLzwQiROpwvQCHgRmOPVkaSFZ/CVlFQVwOXA7tkbX30V2ra1OJKqbb45fPQRvP9+0U8lBXQD/gDGAGmvjiQtHJtbSUqi+oRGVjmtqx54ANZc0+JImt8990CPHpE4lcbAmcBuXhVJWngGX0lJkyI0iDmeEIABuOAC2H13iyPpzz37LCy7bCROZSngUmBjr4okLRy7OktKmu2BQcBymQ377w+DB1sYSX/v3XcjNTJkDLAf8LFXRpL+mnN8JSXJ2sCNwMqZDeuvD48/bmEkLZzlloO11orMcmetgbbAs8A0r44k/TmDr6SkaAv8F6halbNVq9DBuX59iyNp4XXuHDq/jxgRidNZFVgCeB6Y7dWRpAUz+EpKgubAQGDHzIayMnj9dVh+eYsjadFtsgl8/jm8/XbRTyUFrEFY2/dVYJ5XR5LmZ3MrSXHXEDgd2DN746OPQqdOFkfS4hs8GDbaKBKn0hD4P+BfXhVJWjCDr6Q4KwMOAY4ia4TLZZfBDjtYHEm1N3w4tGkTiVNZErgY2NKrIknzs6uzpDjrDdwCLJ3Z8O9/w1VXWRhJdWf8eOjSBeZFY5DxW8C+wHteGUmqZvCVFFcbAkOADpkNm20GL7xgYSTVvWHDYLvtInM6zwD9gO+8MpIU2NxKUhy1B24AumU2rLRSaGZV7k89SXnQoQMssQQ880wkTqc9YaTLc8Asr44kGXwlxc/SwDXANpkNDRvC2LGw9NIWR1L+bLgh/PADvPFGJE6nKzAXeAU7PUuSwVdSrDQGLiDMb6uayjFsGKy9tsWRlH877ggjR8JnnxX9VMqBdQjDncd5ZSQlnV2dJcVFOaF786Fk/Wy76irYaiuLI6lwnnoK2rePxKk0I3wZuL1XRVLS2dxKUlzsBfwXaJ7ZcNJJYekiSSq0zz+Hzp1h5sxInM4HQF988ispwQy+kuJgM+B2oG1mw7bbwtNPWxhJxfPii7D55tE5HcI0kK+8MpKSyDm+kkpdZ+BGoEtmQ4cO8NprkPKrPUlFtPLK0Lo1PPZYNE4HaAWMAGZ4dSQljcFXUilbjjC8edPMhqZN4c03w7IiklRsPXrA1KkwalQkTmc1Qg+EkYSOz5KUGAZfSaWqGXAJ8E+ypm089xx07WpxJEVHr14wZgxMmFD0UykDegC/ANFYdEmSCsSuzpJKUT3gOKAfWaF30CDYZBOLIyl6nngCunSJxKk0Bs4FentVJCWJwVdSKeoLnALUz2w4/XTo18/CSIqmVApGjIBmzSJxOi0JI2bW98pISgpbv0gqNb2A24DWmQ277AIPP2xhJEXfa6/BBhtE5nReBfoAE70ykuLOOb6SSsmawA1Ah8yGrl3hpZcsjKTS0KZN6Dz/0EPROB1gJUKn52leHUlxZvCVVCpaE5YtqnpW0rx56ODcpInFkVQ61lwTZs+GkSMjcTqdgEaEdX7neHUkxZXBV1IpWBIYQI1mLCNHhicnklRqttoK3nkHPvqo6KeSAtYCJgOvAWmvjqQ4srmVpKhrAJwM7J298Z57YJ11LI6k0vXgg9C9eyROpSFwBmF5OEmKJYOvpChLAQcCxxOWMAKgf3/4178sjqTSN3w4tGgRiVNpAVwEbOpVkRRHdnWWFGU7ATcDy2U27LMP3HmnhZEUH++8A926ReZ03gT2AT72ykiKE4OvpKjqAdxJaLwCwGabwQsvWBhJ8TN8OPTqFZnTeRI4CPjeKyMpLgy+kqJoFeAOYOPsjV26wIorwq+/Qtr2K7WSSsHcuTBpEhx/PBxzjDXRwpk0CbbZJnQlrlfPetSFevWgcWMYOxYmT47EKaWBm4CTgCleIUlx4D9ZkqKmAjifGqEX4MMPw0t167PPrIEW3ty58MYb1iHmMv0VvgYuxmWOJMWAza0kRUk5cBxg66oCatTIGmgRPqQuhJgU9Qkd9ftaCklx4BNfSVHSCVgbGA3Mi+l7TAOrAit4uSVF3BKEEThfA89aDkmlzOArKUomAPsSwmEczQXWBQZ5qSWViDbAlYROz+9aDkmlyuArKUpmVb7iaiXgAqC9l1pSCVmdEH77EZ7+SlLJcY6vJBVGC+BSYFNLIakEbUX44m4JSyGpFBl8JSn/GgGnAXtYCkklrC9wCqHxlSSVFIOvJOVXCjgEOJrQtVqSSlWm8/6BhJ9tklQyDL6SlF+7AmcDjS2FpBhoCvQH/mEpJJUSg68k5c8GwCVAS0shKUaWAwYAPSyFpFJh8JWk/GgPDAQ6WApJMdSJ0Ol5ZUshqRQYfCWp7rUELgfWtxSSYqwncBGha70kRZrBV5LqVhPCnN6dLYWkBPgncAbQ0FJIijKDryTVnXLgKOAw/PkqKRnKgCOBw/HnnqQI8weUJNWdfwGnAw0shaQEaQycCfS2FJKiyuArSXVjM+BCoLmlkJRAmd4GG1oKSVFk8JWk2utE6ODc1lJISrBVCJ2e21sKSVFj8JWk2mlBeNLb3VJIEusD5wNLWApJUWLwlaTFVx84Bee1SVK2fwInAPUshaSo8AeSJC2+CuAbwvJF6RI55zSwHHAQ0MxLqASaAAwFZluKvCkDfgWaAr9bDklRYPCVpMX3K3BtCZ73asBeGHyVTJ8BlwLTLYUkJYdDnSVJkiRJsWbwlSRJkiTFmsFXkiRJkhRrBl9JkiRJUqwZfCVJkiRJsWbwlSRJkiTFmsFXkiRJkhRrBl9JkiRJUqwZfCVJkiRJsWbwlSRJkiTFmsFXkiRJkhRrBl9JkiRJUqwZfCVJkiRJsWbwlSRJkiTFmsFXkiRJkhRrBl9JkiRJUqwZfCVJkiRJsWbwlSRJkiTFmsFXkiRJkhRrBl9JkiRJUqwZfCVJkiRJsWbwlSRJkiTFmsFXkiRJkhRrBl9JkiRJUqwZfCVJkiRJsWbwlSRJkiTFmsFXkiRJkhRrBl9JkiRJUqwZfCVJkiRJsWbwlSRJkiTFmsFXkiRJkhRrBl9JkiRJUqwZfCVJkiRJsWbwlSRJkiTFmsFXkiRJkhRrBl9JkiRJUqwZfCVJkiRJsWbwlSRJkiTFmsFXkiRJkhRrBl9JkiRJUqwZfCVJkiRJsWbwlSRJkiTFmsFXkiRJkhRrBl9JkiRJUqwZfCVJkiRJsWbwlSRJkiTFmsFXkiRJkhRrBl9JkiRJUqwZfCVJkiRJsWbwlSRJkiTFmsFXkiRJkhRrBl9JkiRJUqwZfCVJkiRJsWbwlSRJkiTFmsFXkiRJkhRrBl9JkiRJUqwZfCVJkiRJsWbwlSRJkiTFmsFXkiRJkhRrBl9JkiRJUqwZfCVJkiRJsWbwlSRJkiTFmsFXkiRJkhRrBl9JkiRJUqwZfCVJkiRJsWbwlSRJkiTFmsFXkiRJkhRrBl9JkiRJUqwZfCVJkiRJsWbwlSRJkiTFmsFXkiRJkhRrBl9JkiRJUqwZfCVJkiRJsWbwlSRJkiTFmsFXkiRJkhRrBl9JkiRJUqwZfCVJkiRJsWbwlSRJkiTFmsFXCuoDXYEGlkKSJC1AM2BVIGUppNJj8JWgAjgVuBhoaDkkSdICLA3cBOxL+MJcUgkx+CrpVgauB/oDSwFpSyJJkhYgDaxC9e8NzS2JVDoMvkqytYGhQF8/C5IkaSGkgabAycANQFtLIpUGf9lXEqWAHYC7gI0thyRJWkT1gH8BQwhfpEuKOIOvkqYBcChwC9DJckiSpFrYFLgT2B6bXkmRZvBVkiwBnAUMAFpZDkmSVAc6A4OAg7DplRRZ9SyBEqI18B+gj/e9JEmqY8sBVwIrAZcBky2JFC0+8VUSrA7cDuxHdujdFAc7S5KkxbNCD1iuY/aWZsD/AVcBK1ggKVoMvoq7rQlNrLYie+7NnsCLhO9lJUmSFtXyG8HR42G5btlb6wP9gNuArhZJig6Dr+KqHrA/Yc7NGjl7zgLuq/zPv1ooSZK0GNKToAVw5FvQbbfsPSlgW8IX75tbKCkaDL6Ko2bAKcDVQJucPUOB87L+e9piSZKkxZGGGeEP9v4fbHJazf/BmsAdhP4i5dZLKi6Dr+JmWeBy4FxCF+egGTCa8E+PJElSXUkTAvAuF8IOg2vubQNcC5wMNLFYUvEYfBUnqxKGNh9C9nICqwKfABtYIEmSlAdpYAqwxf5w0Cio1yh7b3PCF/KXAstYLKk4DL6Ki56EuTT/yLmvtwM+xlV7JUlS/k0GOm0Ix0yApXI6PjcEjgRuBjpYKKnwDL4qdeXAv4AhQI+cPScDT1kgSZJUQFOB5VrD0R9Cu62z96SAXQhf1DsOTSowg69KWWPgWOC/wMo5e24kDCiKtxTZSzRJkqRomA6UlcMhw2H9Y2vuXRe4E9iN/P8u7u8JUiWDr0rV0sBFwIWExQSCBsAI4NDYv/9mwN7Act4KkiRFUBqYCewxELa9oubedoSv6Y8hDIPOh4bAPkBbL4Zk8FVpWgW4CTia7H8sVgTGA1vG/v23ISzVdB7Q1NtBkqSIyjS92uZ46PsMpHJ+9W5J+BL/fLK/xK87KcJ6FncB63sxlHQGX5Wa9akeHlS9Jt6mwKck4TvNdQn/gB1A/r4hliRJdWky0G0bOOpDqGidvacxcCJwPbBSHR81XfnnRsA9wF5APS+Gksrgq1K6V3chLAS/Yc6eQ4EXyV7AKK7vfydgKKGDtSRJKiVTgBVXhWPGQ5uc3lZlhFA6FFirDo+Yovp3/ZWBG4DjcT1hJZTBV6WgIXA4cAuQszYAlxJmyMT//R8K3EpYlViSJJWiaUCDJnD4aOixb8292Usz5qMp1ZKEYdWXEoZZS4li8FXULQn0By6j5g/pxwhLFsXbEsA5wABc9F6SpNKXBuYA/xwCW15Qc29nwhfdB1P7sWxpYF6NbQ2BIwjrCbf3YihJDL6KshUJSxWdSPawnGWAD4EdY//+2xDm/JyMw5IkSYqPNGHJo3+cAb3/V3NvK+AK4AzCF+C1saAnx2VAb8LQatcTVmIYfBVV3YEh1GzEsA7wGeH70HjrBtxOWIbARhSSJMVNmtD0apPd4LBx0Hip7L3NCMF3ILB8ns5gA0L47Y2ZQAngTa6oSQHbEn4Qb072N5V9gNeJ+wI+KaBX5fvfEheelyQp3iYD7bvDMZ/Asmtk76kH9CN8Eb5ano7entBD5UhcLUIxZ/BVlNQnLNMzGOias6c/IQrG//3vX/n+V/d2kCQpIaYCLZaCo96Bzr2z96SAbQhNr7bI09GXBi4hNL5q7sVQXBl8FRWZIT1XEea2VLsHODsR7/804GryN6RJkiRF1QzC8Od+D0HPM2ruzUyB6kN+pkA1ISx1lI/1hKVIMPgqCpYnBL7TCQEwWAJ4E/hX7N9/K8IcnjOACm8HSZISKk0IwDtfADsMrrl3ReA6ajb9rDv1gL0JAXut6BZJWjwGXxVbV2AQYQ5L/Zytn5GEH7tdgNuAA4EG3g6SJCVcGpgCbLE/HPAy1G+cvXdJ4DwWtMxj3dkcuJPQc8VeI4oNg6+KaXPCzN3cH6y9gfeApWL//jerfP/b4z8skiQp22RgtY3hmAnQYpXsPQ2Awwnr/XbI09G7EHqOHEDt1xOWIsHgq2KoR1im5w7CskXVTgMeiv37Lycs03QHsLa3gyRJWqApwLIrhPDbbuvsPWXAzoQv0DfM09Gzp2I182Ko1Bl8VWhNgJMIzRPa5Oy5Fbgw9u+/MWFuzn8Jc3UkSZL+3HSgrAwOHg4bHF9z7/qEL9J3Iz+/11cQerAMxOabKnEGXxXSMsDlwLmEOSpBQ+AVwizXeGtJmJPTH5cLkCRJCysNzAJ2uwJ6Dai5tz1wE3AU0CgPR69P+C3tNvK3nrCUdwZfFUpH4GbgMLIXSG8PTAQ2iv3771D5/o8gP/8oSZKkOEsT1vvtdQL0eRpSOb/G53st3hSwHaHp1aZeDJUig68KYSPCHJRdcu65XsBHwAqxf/8bEIYh9fYzJ0mSamUy0H1bOPpjaNYqe09j4DjgBsJavOk8HL074Xe6vQk9S6SS4S/hyqdywpyTocB6OXuOA4aRnyXYo/X56k34dnQDbwdJklQnpgBtOsC/J0KbnN5W9YB/AUOAHsC8PBw9s57wSYSwLZUEg6/ypRFwDGF4b04PfgYAV8b+/TcEjgZuAdp5O0iSpDo1DWjQGA4bBT32r7l3M+B28jcntwWhZ8kl5G89YalOxft5m4qlBXAWYY256m8CU8AzwNaJeP9nEObzNvF2kCRJeZEG5gL/HAxLdIDnz8re2zHPR29IaKjVBjgZ+NQLoijzia/q2sqEuSX/Jjv0tgY+IQmhty1hqabjMPRKkqR8SxOWPNrhTOh9f6GPXgbsSpjWtb4XQ1Fm8FVd6kFo4vRPshsebAKMJ3Rwjre1CXNq9sKGD5IkqVDShKZXG+8Bh78NjZYs9BmsTwi/u2K+UER5Y6qu7qMdgLsIMbfa/sBI4v7sMwVsX/n+bfEvSZKKYwrQbs3Q9Gq5NQt99PbAjcCRZC9dKUWEwVe11QA4hLCo+ao5e/4DDI79+69f+f4HAZ28HSRJUlFNBVosBUe+Dd12LfTRlyE0vOpPftYTlhabwVe1sQRwDnA5sGzOnoeB0xPx/s8m9KlezttBkiRFwgzC8Oe9H4RNTiv00ZsQljq6jrD0kRQJBl8trjbANcApQLOqrUsD7wK7xP79twauAk7Nef+SJElRkCYE4N4Xwg6DCn30cmAfYCjQ3YuhKDD4anGsQRjEvB/ZS2KtDUwAVo/9+1+dMLS5H2GosyRJUvRkml5t0Q8OHAX1GhX6DDYlNL3ajtATRSoag68WRQrYCri78s9qewBjScJsji0JTay28XaQJEklYTLQeUM4ZgIs1aHQR1+N0AvmAHxgoCIy+Gph1SP0aB4CdM3ZcxZwfyLe/36V738NbwdJklRSpgLLtYajPoR2Wxf66MsTpoidBlR4MVQMBl8tjKaEH1RXASvk7LkLOC8R7/9U4GrC3F5JkqTSMx0orwcHD4f1jy300ZsBZwIDgVZeDBWawVd/ZzngCsIPqiWqtlYAY4C9E/H+Lyd0b14y9u9WkiTFWxqYBewxEHoNKPTR6xOGPA8GungxVEgGX/2VToQ5GYcQ1usNugDjgXVj//5XBW4BDst5/5IkSaUsDUwBep0AfZ+hwH2nUsC2hKZXm3sxVCgGX/2ZnoQmVv8g+6fhP4APSMIAlY0JA7l3xC6EkiQpjiYD3baBoz+CioLP5loLuJ0wfrCeF0P5ZvBVTeXAXsAdhB9I1U4Gnoj1e09Xfib2JKw718PbQZIkxdoUYMVV4ZiPoc0GhT76SsB/geOBJl4M5ZPBV9kaE37wXAe0zdlzM3Bp7N9/I+A4wg/glb0dJElSIkwDGjSFw0dDj76FPvqSwPnAJcDSXgzli8MKlNGS0MDqcKBh1daGwDBgs0TUYHXCUkXO55UkScmSBuYA/7oDluwMz51ZyKM3BI4E2gAnAZ96QVTXfOIrgHbATcAxZIfeVYCPSUropfK9G3olSVIypQlPf7c/A3r/r9BHLwN6E6bbbRCtwigODL5aj9DEadec+2EzQuhta4EkSZISI9PxeZPd4LBx0HipQp/BhoTw2xuziuqQN1Oyr31vQiv59XP2HAK8QFhpTZIkSckzGWjfHY75BJZdo9BH70BYUvIIskcjSrVg8E2mzDyKmwg/WKpdVrlVkiRJyTYVaLEUHPUOdNql0EdfmtBa9XxCAyypVgy+ydMc6E/4QbJM1dYU8CShnYAkSZIEMIMw/PmAh6Hn6YU+ehPCiiP/JSx9JC02g2+yrAhcT4i3jau2tgI+ALa3QJIkSaohTQjAO/8Hdhhc6KPXA/YGBgNreTG0uAy+ydEdGEr4wVFetXVdYALQ2QJJkiTpT2SaXm2xPxwwEuo3KfQZbEHoTbMtYayitEgMvvGXIjzLvQvYNGdPH2AM0NQiSZIkaSFMBlbbBI4eDy1WKfTRuxCe/B6AbVi1iAy+8VYfOAi4lfCDotr5hOe/kiRJ0qKYAizXGo6ZAKtsVeijtwIGAmcAzbwYWlgG3/iqIPxAuBJYPmfP/cCZFkiSJEmLaTpQVgaHPAsbHF/oo1cApxMC8PJeDC0Mg288LQ9cRc1vwloAbwJ7WCBJkiTVUhqYBex2BfQaUOij1wcOJIxsXM2Lob9j8I2frsDtQD9CF7zqrROwF54kSZLqTpqw3m+vE6DPU5AqaLzI9LK5k5q9bKQaDL7xsmXlB38bsrvd9QbeA5ayQJIkScqDyUD37eDoj6FZq0IfvTsLWr1EymLwjYd6QF9Cl7tuOXvOAB6yQJIkScqzKUCbDvDvidBmg0IffUXgOuBEoLEXQzUZfEtfU+Ckyg/6ijl7BgMXWCBJkiQVyDSgQWM4bDT02K/QR28BnAdcArT0Yiibwbe0LQNcBvQHlqja2gR4GdjfAkmSJKnA0sBc4J+3wxbnF/roDYGjgJuA9l4MZRh8S1dH4DbgMKBB1dZ2hCZWG1sgSZIkFUmasOTRDmfCLvcX+uhlwK6E3jfreTGUuSlUejau/CDvmHMNexFCr6uZSZIkqdjShKZXPfeAw9+ChksW+gzWB+4itHo19yScN0BpKSeswjsEWDdnz4nAMLJ7OUuSJEnFNxlo1w2OnQjLrlHoo7cnDHs+kjAMWgll8C0djYCjgRsJA5qrXQlcboEkSZIUUVOBFkvBke9At10LffRlCA2v+gPNvRjJZPAtDS2AC4GLyV6Ntx7wDHCcBZIkSVLEzaj8c+8HYZPTCn30JvzZSihKBINv9K1MGJ7xb8JT32AFYDywjQWSJElSiUgTAnDvC2GH2wp99HJgH+AOoJsXI1kMvtG2buUHc4/KD2qwCTARWMUCSZIkqcRkml5tcQAc+AqUF3zq7WaEplfbYoecxDD4Rve67AgMJcTcagcBI3FqviRJkkrbZKDzRvDvT6FFwZfcXY2wNOgBQH0vRvwZfKOnAXBI5Qdx1Zw9FwG3WCBJkiTFxFRgudZw9EfQruBz+FYABgKnARVejHgz+EbLEsC5wBWE7nPVHgb+zwJJkiQpZqYD5fXg4Gdg/WMLffQK4EzCOimtvBjxZfCNjjaELnMnE7rOBUsD7wO7WCBJkiTFVBqYBewxEHoNKPTR6wMHAoOBLl6MeDL4RkO3yg9aX8IiRUEPQhOr1SyQJEmSYi4NTAF6nQB9hxX66ClCs6s7Cc2vFDMG3+JKERYkGgpslbNnL+ANwuBnSZIkKSkmA916wdHjoWKFQh99LeB2YG+yV1VRyTP4Fk99YL/KD9bqOXvOBu62QJIkSUqoKcCKHeGY8dBmg0IfvS1wPXA82VMQVdIMvsXRjNA97hpg+Zw9dwL9LZAkSZISbhrQoCkcPhrW7lPoozcHLgAuIXTdUYkz+BZeK0LXuDPIbpvejDC0eR8LJEmSJAFh3u8cYK+hsMX5hT56Q+BIwoKi7SNWGS0ig29hdQFuBQ4irNcbrEZoYtXDAkmSJEk50oSnv/84E3r/r9BHLwN6E3rybBCtwmhRL6QKY1PCQOZ/EJpaBTsRlitaxgJJkiRJC5Tp+LzJbnDYOGjcotBnsAFwByEEm6FKkBct/8oJPZqHErrEVTsFeNQCqVbSlkBSIdWvbw0kFdFkoH13OOYTWHaNQh+9A3AzcARhGLRKSD1LkFeNgWMIjaya5+y5CTjEAqnWn9+2hPDrl1haWPOAFclaomHGjPDn1KkWR3+tUSP45RdIpSBdul+7NQbaATO8oloE84A2+LtzNEwFWiwNR70Dd+0CHxf0SVJL4FJgJeBC4HcvSGlIWYK8fijOAQ4GGlVtrQ+MAHpaoEjoAbxZsmc/F/iZ0PLBz7IWVprwk6glWV+Y1K8Ps2eH/5zyblLNm6Yy5JaVQXl59b1SomYCv+KIGS3ix4AQeluS+eJw7b6wzx3hCaSKI0X4LfuJM2DkhYU++hzgfuBU4CsvRvT5rVV+dCB8E7QL2U/iVgFeJDxrUTSU9q895cByXkTVhewgU8JP8pRn8+aFV4lrSM2lBCWVpjRh7MbO/4ElVoUn+hXy6PWAvQkrtpwAvOUFiTaHR9a99QnzeXfNqe9WwEcYeqPGoZ2SJGlxTJ/muIEoyDS92mJ/OGAk1G9S6DPYgtDAdlscgRdpXpy6UwbsDAwgzB2qdhhwgwWKpAsJX0gsaSmUECngF+CunK1jgVFE99+EeoSfryt4ASN4P3XcEVq0g3TpPwqWFtr0X2DVbaDHAWHwvKKhGfDt1zB4M/htYqGP/j1wOuEBWGlPCIkpg2/daAgcCpxNmPtR7TLgJAskKULmEWb5VueUiwj/WEdVE+ApwrJwipoj3oGua8B0/K1CyZEmRBtDb/Q0BqbNgzt6wWcjCn30ycAVwOWE59CKEOf41l4LQtfmowi/nFV7mjDoQZKi5DeyQ69UOzP+CL/q2SNZUhRMJ3TiO+RZePR4eHVgIY9eQcgFbYAzCU+BFRHO8a2dtsB1hAnt1aF3eeBjDL2SpGTwSa+kKEkDs4DdroReAwp99AbAgcBtQBcvRnQYfBffWsAQQje3qvUw2RAYD6xqgSRJkqSiSBOamPY6Afo8CanyQh49BWxPaHrlNJ2IMPgu/o1893w3ch9Ce5hmFkmSJEkquslA9+3hqA+hWatCH30tQrOrvch+UKaiMPgumvrAwYShC51y9pxfeVtLkiRJio4pwIod4d8TofX6hT76isD1wImE1lsqEoPvwqsAziJ0asv9uuhBwvR1SZIkSdEzDWjQGA5/FXrsV+ijtwD6A5dQcwUYFYzBd+GsAFxF6NJWPZB5KeAtYFcLJEmSJEVaGpgL/PN22OL8Qh+9EWEVmBuB9l6MwjP4/r2uwGDgALKXf+oGfFL5pyRJkqToSxOWPNrhTNjlvkIfvQzYjTBBcj0vRuGLrz+3JaGJ1TY5W3sTnvQuZYEkSZKkkpImNL3quScc9hY0XLLQZ7ABcBewC+axgrHQC1YP2Be4HVgjZ88ZwEMWSJIkSSppk4H23eDYibDs6oU+envgZuBIoKEXI/8MvvNrCpwCXAO0ydlzB3CBBZIkSZJiYSrQYik48l1Ys+CNe5YhNLzqDzT3YuRXPUuQY1ngXOAgoEHV1qbAcGBDCyQpltYFjiWsUx5FDYDWXiZJUl7MIPwLuM+DsMTp8PJFhTx6E+AkwgO304CvvCD5YfCttiowANiB7F/+VgWeJ/R1lqR42rryJUlSMqUJAbj3hbBEB3jyoEIevRzoQwi/xwJve0HqnkOdg40JE8x3JDv09gI+wtArSZIkxV2m6dWWB8KBr0B5wafebkbIJNsS3VFYJSvpBS0HdgcuBlbJ2XMicLk3iKQY+gVoWdLvYC7he3kVXprwpXljMr9DHPAydNo4LA8iSXHRFPjuGxi8Kfw2sdBH/xY4i9BhaLYXo24keahzY+Bw4ExqLkx0A3CYN4ckRdT7hK8nM7OyVDjzgJUJDSBbWA5JsTUVWK41HP0x3PkPmDi8kEdfARhIGPp8JeE5tGopqcF3acLCREcAjaq21geeArbyxpCkCPsdGAVMsxRF8TMwyzJIir3pQHk9OPgZeOQ4eO2qQh69gvCAbkXC09/vvSC1k8Q5vqsANxImjleH3hUJ83kNvZIUdT7llSQVRprwVd8eA6FXwedB1iesNjMI6OzFqJ2kBd91gaGEeb3V730TYALQzhtCkiRJUpY0MAXodSL0HVboo6eA7QhNrzbzYiy+pATfMmBnQujdKGfPQcBIslftlSRJkqRck4FuveDo8VCxfKGPvhZwO7A3oUGvFlESgm9DQquqmwmr8la7BLjFm0CSJEnSQpgCrNgxhN82Gxb66G2B64HjgSZejEUT9+C7JHAOYWGiZXP2PAqc4g0gSZIkaRFMAxo2g8NHwdp9Cn305sAFhOVYl/ZiLLw4B982wHXAyWR/I7IM8B6wkxdfkiRJ0mJIA3OAvYbCFucX+ugNgaMIY1ftUrSQ4hp8uwFDgH3IXrJpbeBToKsXXpIkSVItpAlPf3c4E3r/r9BHLwN6A3cC63sxFq5gcZICtq28AbYge8mLvYGxhBWxJEmSJKm20oSmV5vsBoeNg8YtCn0GGwB3ALuQzKVqF1qcilMf6AfcRs1nuv0JDcAlSZIkqa5NBtp3D02vll2j0EfvSBj2fDhhGLQWIC7BtxlwGnA1sELOnruBs73QkiRJkvJoKrBUSzjqHei0c6GP3pLQ0Lc/ocGvaohD8G0FDATOJATgYAngdWAvL7IkSZKkAphBGP58wCOwyWmFPnpj4ETgv8CKXoxcpR58uwCDgAMJQ52rt34KrOMFliRJklRAaUIA3uVC2GFwoY9ej9Dd6HaguxejWikH380JTay2I7uJ1c7AB4SH/ZIkSZJUaGlgCrDF/nDAS1C/caHPYAtgKKHxb8oLUprBN/tbjLVy9vwf8IgXVZIkSVIETAZW6xmaXrUo+JK7XYHBhAbA9ZN+KUot+DYBjieMW18pZ8/NwEV+tiRJkiRFyBRguTZwzCewypaFPnorQgPg08nuh5RApRR8WwKXAueT3amsIfAScLCfKUmSJEkRNB0oK4NDRsAGxxX66M0IwXcgIQgnUqkE3w6EtamOIHttqpUJTax6+lmSJEmSFGFpYBaw25XQa0Chj96A0BD4NkIr4MQpheC7IXAHsEvO+W4NTABa+xmSJEmSVALSwDSg1wnQ50lIFTSOpYDtCQ2CN01a6aMcfMuAXQndyDbI2XMcMBwo97MjSZIkqYSkCU2vum8PR30IzQo++ngtQsbaiwQlqqgG30bAUYThzbntzy4HrvTzIkmSJKmETQFWXBX+/Sm0Xq/QR1+R0DD4BKBx1EqTD1EMvs2BC4BLgKWqtqaAp4ET/YxIkiRJioFpQIMmcPhr0GPfQh+9OXAeIXe1jHupoxZ82wI3EAYzV3/z0Ar4hLD8siRJkiTFRRqYC/xzCGxxfqGPnhlpeyPQPs5ljlLw7QEMAf5F9ljzjQidm2N9GSRJkiQlVpqw5NEOZ8Iu9xX66GXAboR5v+tFrDJ1+iajcA7/YEHdxfYHXgGa+FmQJEmSFGOZplc994TDxkHDJQt9BhsAd1FzNZ2YKPYbagAcBAwCOuXsOR8Y7P0vSZIkKUEmA+27w7ETYdmuhT56e+Bm4EigYZzKWszguwRwNnAFsGzOngeBM73nJUmSJCXQVKDFUnDke7DmroU++jKEhlf9CQ2wYqFYwbc1cDVwCtCsamsL4F3C6r2SJEmSlFQzKv/c50HY5LRCH70JcBJwLWHpo5JXjOC7BmFo8/5A/aqt3QlNrFb3HpckSZIk0oQA3PtC+MethT56OdCH0IC4W6mXspDBNwVsSWhitU3Onj2AcYQnvpIkSZKkINP0assD4YCXobxBoc9gc0LTq16ETFeSChV86wF9Cd8WrJGz5wzgfu9nSZIkSfpTk4EuG4emVy3aFfroqxFG7R5A9qjdElKI4NsUOBW4hjC3t9odwAXew5IkSZL0t6YCy7aGoz+GdlsX+ugrAAOB08ju01Qi8h18lwMGELo3Vy9E1QR4jfAMWJIkSZK0cKYD5fXg4OGw/rGFPnoFYf2dK4FWpVS2fAbfTsAtwKGE9XqDzoQmVut5z0qSJEnSIksDs4A9BsI2lxX66PWBgwhDnzuXSsnyFXw3JjSx2pHsCdDbA+9TYt8NSJIkSVLEpIEpwLYnQd+nC330FLAdoenVZqVQrroOvuXAPwmht0fOnhOBJyneysGSJEmSFDeTgW7bwtHjodnyhT76WsDtwN6ELBhZdRlDGwHHAf8F2ubsuQG43HtSkiRJkurcFGDFjnDMeGizQaGP3ha4Djie0M0pkuoq+C4NXEzo0bxU1dZ6wPPAYd6LkiRJkpQ304CGzeCw0bB2n0IfvQUhC15EyIaRUxfBtx1wI3AM4alv0Bb4hLDcsSRJkiQpv9LAXGCvobDFeYU+ekPgaEKD43YRq0ytg++6wFBg95y/a1PgY2Bl7z1JkiRJKpg04envDmdB7wcKffQyoDeh59P6USrL4gbfFLAzoYvXhjl7DgJeJOR9SZIkSVJhpQlNrzbeHQ4bB42aF/oMNgDuAHYhIu2NF+ckGgBHAjcDHXL2XEJ4sC1JkiRJKq4pQPvucMwnsOwahT56R0I6PJwIPBZd1ODbHDiPEHGXzdnzBHCK95YkSZIkRcZUYOmWcNQ70GnnQh+9JWF9n/7AksUsw6IE3xWBa4GTgKZVW1sBHwD/8J6SJEmSpMiZThj+fMAjsMn/FfrojYETCcverlisEixs8O1GGKPdh+yFidcFxgNdvJckSZIkKbLSwAxgl4tgh0GFPno9YG/gdqB7Md7+3wXfFLAtcDewWc6evYAxQIX3kCRJkiRFXpow73eLfnDASKjXuNBnsAVhVaBtCVmzYP4q+NYHDgQGUfOZbn9CFJYkSZIklZbJwGqbwDEfQ4uCL7nblZAx9ydkzoL4s+BbAZwOXAksn7PnPuBs7xVJkiRJKllTgOVWhGPGw8pbFProywNXA6cBzQpxwLI/OYkrgTPJHsjcHHgD2NN7RJIkSZJK3nSgrBwOfQ7WP7bQR68AzgAGElom51XN4NsFGEwY4lyvamtX4BOgh/eGJEmSJMVGGpgF7D4Qeg0o9NEbELLnbeS5ZXJ28N2cMHO3F9kTjXcC3iOswCRJkiRJipc0MA3odQL0eRJSZYU8egrYntD0atN8HaSMMKG4L6G1dLecvacBj3ofSJIkSVKspQlNr7pvD0d9AM1aFfoM1iYsofsvspfQrSNlwEnAdcBKOXseAC70+kuSJElSYkwBVuoEp3wHK21S6KOvBNwAnADU6VpLZcBbwHfz7fnEay5JkiRJiZMCJn0Hs34pxtGbA+cBlwBL19VfWgY8BRxGmMlb7TRgd6+5JEmSJCVGBfDOs3Bla/j+w2KdRSPgKOAmoH1d/IWZWcsvAnsDwwmju4MHge7Ar15/SZIkSYqtFGFF3eFXwh3bQDpd7DMqA3YjzPtdry7+soz3gH6EJlezq7a+DbSr/FOSJEmSFC8pwsJCDxwHw06I2tltCNwF7Mz8y/EutJr/x2+BfxPGU0+p2vo74cnvA94TkiRJkhQbjYG5c+CWbeC1q6J6lu2BW4AjCBF9kS0oMU8mTCY+HvghZ8+elXskSZIkSaWtGfDD13BdZ5j4bNTPdhnCA9rzCA2wFsmfPSqeDdxKGPqcO6P5HKCP94gkSZIklawK4MNRcHUH+PXTUjnrpoTleK8BVlyU/+NfjZFOA08TYu4LOXvuAtYnPBuWJEmSJJWGTBOr5wbBbRvD3Jml9g7Kgb7AEKDbwv6fFmZy8Dhgf0LcnVO1dQxhpPVH3juSJEmSFHkpwkJBD/8fPHlgqb+bzQkZtVflO/tLC9sV60vgSOAKYFrV1p+ALsDj3kOSJEmSFFmNK/8c1BteuSQu72o1YBBwAFD/r/6Hi9IO+nfgbOBk4OecPTsBF3svSZIkSVLkNAV++RmuXwM+fiRu724FYCBwGmEQ9wIt6jpIM4EbgAOBCTl7TgMO8p6SJEmSpMioACaMg6vbwY/vxfldnkkYodxqQf+DxVkAeB7wGKHp1Ss5e24DNgNmeH9JkiRJUtGkCHHwpXvhprVhZuw7E9cHDiak0s41d5bV4i8eA+wHPADMrdr6EtAR+Mx7TZIkSZIKLkWY0/vYufDoXkl759sTml5tmr2jrJZ/8UTgMMI6StOrtn4NdABGeM9JkiRJUsE0IqS8e/aBF/sntQprEZY72huoB7UPvgC/Emb4nlH5n4N5wNbAld57kiRJkpR3TYDfJ8MN68G4u5NejbbA9cDxQLN6dfSXzgCuJix7dDmwctWeEyq3GoAlSZIkKT+aAZ9/BIN6wrSfrUfQHOgPVJTV4V86F/gf0Jcw/7faQGBbYI6VlyRJkqQ6k2liNfYxuK6LoTfXdOBu4P6yPPzlrwD7Ao8SBjwHzwCdgG+sviRJkiTVWoowvPmpi+Gena1Hrl+AU4CjgHfL8nSQ8YRW0jcS1v4NJgLtqbkIkiRJkiRpUaQIbZvuPwRGnGY9ck0g5NHrqVxstyyPB/sJOAk4B/i9autMYBPgVq+GJEmSJC2yJsCcmXDzZvD6LdYj12jCCOSHyRqBXJbng04DBgBHAF/l7DkY+D+viiRJkiQttGbAt5/D1e3hi5esR7W5wEOE0PtqzZ1lBTiBOYQJxfsB43L2XALs4hWSJEmSpL9VAbwzAq7pCH/YPCnLTMKw5kOATxf0Pygr4Mm8QOj4/DSQrtr6KLAaYWC0JEmSJClXivCkd/hAuGNrmOdyOVkmAWcCpxIaWi1QWYFP6gPgAOA2YFbV1g+BdsAbXjVJkiRJqpICGgAPngTDjrceub4ADgeuJCxd9KfKinBy3wPHAf8BJldtnQKsC9zp1ZMkSZIkGgPpNNy6PYweYD1yjSVMp72XML/3L5UV6SSnABcBxwDf5ezpC5ztVZQkSZKUYE2Bn74P83k/fdp6VJsHPEVIjgvd3ausiCc8GxgC7A+8l7PnfOBfXlFJkiRJCVQBfDQqdG7+9VPrUW0WYWHcA4CPFuX/WFbkE08Dw4E+wAiym17dB6xF9grAkiRJkhRfmSZWzw+G2zaG2dOsSbXJwHnACcAPi/p/LnbwzXiH8OR3KGH5o+AtYBVqPg+WJEmSpHhJAY2AR8+EJw6wHrm+IUyTvZQwbXaRRSX4Zt7M0ZVvZmrV1t+ANYAHvdqSJEmSYqgRIfjevTuM/I/1yPUuYWjzEMJ02cUSpeAL8AfQn/D4+secPbsT+kBLkiRJUlw0BSb9BtetAW/7tC9LmjAdtg9hemy6Nn9Z1IIvhAnLN7OgCctnAv28AyRJkiTFQAXw6Ti4qh386PzOLHMI02D3JzzxrbUoBl8Iaf5JFtSi+nZgQ8B53pIkSZJKUYoQekfeDzeuDTMmWZNq04CLCdNgv6mrvzSqwTdjwYsSvwq0Az7xrpAkSZJUQlJAY+CJC+CRf1qPXD8Qpr2eT5gGW2eiHnwBvgAOB64EpueUpBPhubAkSZIkRV0KKAfu3ReeP8t65PoIOBi4iTD9tU6VQvAFmESY4XsK8EvV1jSwA3CZd4kkSZKkCGsCzJoK/10P3hxqPXK9TJjm+ji1bGL1Z0ol+ALMBK4nfAswIWfPKYRnwpIkSZIUNc2ALz+CqzvAt69bj2pzgfsIoXdsPg9USsEXYB7wMLAvMDpnz43AFtRiZSdJkiRJqkOZJlbjnoDru8KU761JtRmE6ayHE6a35lWpBd+MVwnfCjxEdtOrF4D2wJfeRZIkSZKKKEUY3jzscrhrR0jPsybVfgFOBc4CfivEAUs1+AJMBA4hDH+eUbX1K6AD8Jx3kyRJkqQiSAENgAcOg+EnW49cnwKHAdeSnePyrJSDL1R/U3AmoQFWMBvYCrjKu0qSJElSATUB5s6GGzeHMTdZj1yvE6at/o8wjbVgSj34QljiaCDhW4PPc/YcB/gFiyRJkqRCaAZ8+zlc0xG+eNF6VEsDjwL7ULNXU4HEIfhCdTew/YA3cvZcDmxPnppiS5IkSRKhidV7z8O1nWHSF4kvR5ZZwHUsaHWeAopL8M0YSWh69QTZj86fBlYFbKImSZIkqS6lCE96R9wCt28Jc2dak2qTCA2sTgV+KuaJxC34AnwMHAjcTPh2IZgAtANGefdJkiRJqgMpoCHw0Cnw1CHWI9eXwFHAAGBasU8mjsEX4EfgROBc4I+qrdOBjYHB3oWSJEmSaqFx5Z+3/gNGXWY9cr1FmIZ6F9nLzxZRXIMvwFTgMsK3DF/n7DkAOMO7UZIkSdJiaAr89D1c2wUmPGU9qqWBYYQmVpHq7hXn4AswBxgK7A+8nbPnQmBX70xJkiRJi6ACGP8aXLMq/PyR9ag2G7iV8Jjxw6idXNyDb8ZzQB/gGbL7Oz8MrA786l0qSZIk6S9kmli9eBfcsgHMmmxNqv0BXAAcD3wXxRNMSvAFeB/oR5jhOztnazvgTe9WSZIkSQuQIszpfexseKyP9cj1LSHwXghMiepJJin4Qvj24VjgPzkX5XegB3CPd60kSZKkLI0IqemuPeCl861Hrg8IQ5sHEaaZRlbSgi/AZMK3EcdS8zH83kB/715JkiRJhCZWk36D69eCt/9nPXI9T0hQudNJIyqJwRfCUOdBhPV+38/Zcy6hB5kkSZKk5GoGTHwnNLH6/i3rUW0u1Q2E3ymVk05q8IXwrcTTQF/gBbK/pbibMPTZ+eqSJElSsqQInZtHPQI3dINpP1uTapklY48GviqlE09y8M14C9iXsLhy9bj0NwlNr963QJIkSVIipIAmwJMXwkO9rUeuH4FTgHMIXZJKisE3+Bo4ivDtxbSqrT8Tljt6xAJJkiRJsZYC6gH37gfPnWE9cn0CHAzcAMwqxTdg8K32O6G11YnATzl7egMXWyBJkiQplpoAs6bCDRvD2DusR65RhC5IjwHzSvVNGHxzzQRuAg4CPs7Zc1rlVkmSJEnx0Qz4+hO4phN8Pcp6VJsH3E/oifRGqb8Zg++CL/BjhHm/r+TsuQ3YCJhhkSRJkqSSVwG8PTyE3snfWI9q04GrgcOBz+Lwhgy+f+51wrcbDxBadgejgfbABAskSZIklaQU4UnvM1fA0F6UwDK0hfQrcCZhzOuvcXlTBt+/9jlwGHAV2c95vwU6A8MskCRJklRSUkAD4IEj4JkTrUeuz1lQ/okBg+/f+xU4AzgV+KVq61xgO+AKCyRJkiSVhMbA3Nlw89bw2g3WI9cbQB9qjniNCYPvwpkBXEv49uPTnD0nAsdbIEmSJCnSmgE/fAXXdobPRliPamngUULojW13L4PvwpsH/I/Q9GpMzp6BwJbE8HsRSZIkKQYqgA9ehqs7wG8TrUe1mcCNwCHA+Di/UYPvohtN+DbkUbLXsXoe6AB8ZYEkSZKkSMg0sXruVhjUE+bOsibVfgfOI4xh/THub9bgu3gmEFb1vR6o/vR8DqwKvGiBJEmSpKJKAY2Ah0+FJw+2Hrm+AY4CLgWmJeENG3wX38+EhldnApOqts4ANgdusUCSpISYaQkkRUxjwszV23aGVy61HrneIUzfvAuYk5Q3Xc/rXivTCH2dvwYuAtpW7TkE+AS4xCJJipjS/8nvYotRUl4OTYEplkIJ5E+jaGoK/PgT3L4F/PS+9ci9Y58BTgLeS9qbN/jW3lzgbsLqvlcCa1XtubTylnrCIkXW5MorWI8wHMZ/wBR3jQkLs5WR3aWgFN9FO2B65SdXhTMXWIns3x+mTwqhd6bJV0mRgnmzYW5DaNrYckRNBTD+TRi8Gczy51KW2cBQwmjVbxP6yVUd6kx4ArxdTm1XBV4ClrNAkbMRoV1ZuZ8GJURZ5au0l6SfCfyEX1UVS31gGaAcUlBeH0hB2qUNlCDz5kD3frD3oITMjiwBmSZWL90Dj+5tPXJNIWSUywmPfRLJJ7516yPgAOB8oB/hl4PQGLwjYWDBBhYpUjL/WPn7mlRKGgJtLEMUpO2QquQqm2m3nKhIEcYCPXYOvHie9cj1A3AGMITw1De5H1nvhbzcXCcA/YE/qrZOBjYkDDBQdJRbAkmStDjKHS0WBY0IieaevQ298/uQ8DDuNhIeesEnvvkyhdDW6mvgArKfTOxLeALs51JSRKwDbIrjhvX3UoR/4G6q3jQXeAz4lOh+mV4f6I2jBKT4aQL89gfcviV8N9Z65HqB8DBunKUIDL75Mwe4nbBG1hXAGlV7zgfeB/5nkSQV307A2ZZBi+Bmqr4omUtYwC/KbRybAWti8JXipRnw2YcwqCdM/8V6VJsD3A/8H/Cl5ajmUOf8exbYBxhB9gOVBwn/DP9mgSQVV2n3uVKh/Y6jAyQVUYrQuXn0o3D9aobeXJmlVo/A0Dsfg29hvAfsR5hUXr1I9LtAB+AtCyRJKg2GXklFkyIMb37qInhwF+uR62fgFMIgrt8tx/wMvoXzLfBv4CJgatXWXwkr/z5ggSRJkqQFShEmad5/MIw43XrkmgAcDPyXsOSfFsDgW1h/EJpdHQ98n7Nnz8o9kiRJkqo1AWbPgJs2hddvtR65RgF9gUeAeZbjzxl8C28WoRHIQYQW49XOqrxtJUmSJIUmVt9+Ble3hy9HWo9qcwldg/YFXrMcf8/gWxxp4EmgD/BSzp47gfUI60VIkiRJSVUBvPMsXN0RJn9rParNAK4DDgUmWo6FY/AtrnGEb2nuJnxrE7xOaHr1oQWSJElSwqQIT3qHXwl3bAPpudak2iTgDMJyRba0XgQG3+L7EjgSuByYXrX1B6Ar0V4ZUZIkSapLKaAB8OCJMOwE65Hrc+Aw4Cqyc4MWisE3GiYB5xBakP9UtTUN7AhcZoEkSZIUc42BefPg1m1h9BXWI9dYwvKo95E9UlQLzeAbHTOB6wlj9T/J2XMKcIgFkiRJUkw1BX78Dq5ZFT59xnpUm0d1byC7e9WCwTd6N/bDlTf26Jw9twA9cWUuSZIWTbryJSmqKoCPXgmdm3/71HpUy6wGcwDwseWonXqWIJJeJ4Tfy4BdyXxB8TLQEXgBaGeRJElFVwZsC7Qiul+mNwSW91JJEZQiPOl9fhA8caD1yDUZuJgwn3eq5ag9g290fUaYvP4VcDjQCCr/W2fgKWAriyRJKqp6wDGWQdIiSxG+lnr0DBh5ofXI9Q1wOmHll9mWo2441Dnafqm86c8Afq3aOhvYGrjBAkmSJKnENCIE37t3NfTO7x2gHzAEQ2+d8olv9E0nDHH4mjDcYZWqPUcA4wGb3iVVGpiDc9e06FKEn/8pS6EEmkf42SktKn921oWmwM+/wqBN4af3rUe1NPAccBzwnuWoewbf0jCX0Lr8G2AgsE7VniuBd4Fh+Pw+eX4h9Pz+xquvRTAPWJnwRVoLy6EEegvoT2gaIy2sNLAcof/KspZjMVUA49+EIVvBjEnWo9oc4C7gNOBby5EfBt/S8gqwDzCAsMJv+MbxWaAT8DzQxiIlyHTgRWCipdAiWg1/6Vdy/QIMJ/wMlRbFisA0y7AYUkAzYOR98Mi/rEeuqYTxm5cDf1iO/PEpUen5BDgY+C/Zv7hOIITfly1QgqRwuJUkSYXiv7uLW7XGwBPnG3rn9wNwAnABht68M/iWph8JQ1zPASZVbZ1GWOt3sAWSJElSkaWAcuDePvD82dYj10fAQcDNOAqrIAy+pWsqYUjEMYRFjqodQJghIEmSJBVDE2DmVPjvuvDmXdYj10igD/AENiktGINvaZsDDAX2A97O2XMxsJMFkiRJUoFVAF98CFe3h2/fsB7V5gL3An2BNy1HYRl84+EFYG9Cb+fqb40eB7oSBkZLkiRJ+ZQihN6xj8P1XWHqD9ak2gxCE6sjgC8tR+EZfOPjQ8Ig51vJXuz6A2BVwC/bJEmSlC8pwvDmYZfB3TvhCN4cPwOnAmcDv1mO4jD4xst3VHeGm1y19XdgXcLACkmSJKkupYD6wAOHwvBTrEeuT4HDgGsJT31VJAbf+JkMXAQcR80FsPcCzrVAkiRJqiNNgLmz4cZNYczN1iPXGMJ83geBeZajuAy+8TQbGAT0Iwx2rtYf2NMCSZIkqZaaAd9+Bld3hC9HWo9q84BHgH2AVy1HNBh84ysNDCc0vXo+Z88DwNpkrwAsSZIkLbwK4N3n4NrO8PsX1qPaTOA64GDCMGdFhME3/t4hLHc0hNBCPRgHdATetUCSJElaSCnCk94RN8GQrWDuLGtS7TdCA6v/IzS0UoQYfJPha+DfwCXA1KqtPwNrEgZiSJIkSX8lBTQEHjoZnjrMeuT6AjgKGABMsxzRY/BNjt8JM3xPAnIXVesNXGiBJEmS9CcaEybS3bIdjLrceuR6izDC8m6yR1gqUgy+yTILuBE4CBifs+eMyo+rJEmSlK0Z8NN3YT7vp8OsR7U08DShp85LliPaDL7J/IA+UfkBfTlnzx3ARmQPhpYkSVKSVQAfvQrXrAq/fGw9qs0GbgEOAD6yHNFn8E2uNwnrit1L9rpio4FVAX+uSZIkJVemidWLd8KtG8KsKdak2h/ABcAJwPeWozQYfJPtC+AI4ApgetXWb4EugCNZJEmSkidFmNP72FnwWF/rketb4DhChxy/DSghBl/9BpxJzbbraWA7Ql86SZIkJUMjQkK4azd46QLrket9oB8wGJhjOUqLwVcQFtq+FjiUmgttnwTYrV6SJCn+mgK//QrXdYe3H7IeuZ4D9gGGEx4RqcQYfJUxD3gI6AO8lrPnJmALQk9oSZIkxU8zYOI7oYnVD29bj2pzCC1g9wfesRyly+Crml4jhN+HyG569QLQGfjcAkmSJMVGitC5edRDcEM3mP6LNak2FbgMOAb42nKUNoOvFuRTwrDna4EZVVs/I3R8ftECSZIklbwU0AR48j/w0G7WI9ePwMnAucDvlqP0GXz1Z34mNLw6G/i1autsYHPC8GdJkiSVphRQD7h3X3juTOuR6xPgIOBGnOwXGwZf/ZXphKWOjiQsfVTtMELjK0mSJJWWJsDMKXDDRjB2qPXI9QqwN/A42dP+VPIMvvo7c4F7gb7Amzl7BgDbY187SZKkUtEM+Go8XNsJvh5tParNA+4D9gXGWo74MfhqYb1MaOH+BNlR92mgC2Epb0mSJEVXBfD2MyH0TvaXtyzTgauAIwhdbRRDBl8tio8J8x1uInu+w8dAR+BVCyRJkhQ5KcKT3mcGwNBtrUeuX4AzgNPJ7muj2DH4alH9AJwInEd2h7tpwIaEVc4kSZIUDSmgAfDA4fCMDVpq+JzQueYqslcyUSwZfLU4pgKXENY0+yZnz36E78wkSZJUXE2AObPg5q3gtRutR67XgT7A/7CJVSIYfLW45gBDCQ0A3s3ZcyGwqwWSJEkqmmbAd1/BtZ3hs+esR7V5wCOExq2jLEdyGHxVG2ngeULL92dy9jwMdCOsBixJkqTCqQA+GAnXtIdJ9mrKMpOwNu8hwHjLkSwGX9WF94EDgEHA7Kqt7xCaXr1lgSRJkvIu08RqxC0waFOYO9uaVPsdOBc4CfjJciSPwVd15VvgWOBiYHLV1knAWsADFkiSJClvUkBD4KFT4alDrEeur4EjgcsJLVmVQAZf1aXJwPnACcD3OXv2BPpbIEmSpDrXmDABbdDOMOpS65HrbUJPmrsIPWqUUAZf1bXZwK1AP+DDnD3nEmYDS5IkqW40BX7+Ea5fDcY/lr1nHskOemlgGKFz8wveKDL4Kh8yP2j2oeYPmnuA9YA/LJIkSVKtVACfjIWr28FPOc8bZhFW33gzoZWZDQwm9KB53xtFYPBVfr0F7A/cSfY3jq8Tml59aIEkSZIWWYoQel+8C25eB2ZNzd77B3ABYerZLwmszmTC4pr/Br7zZlGGwVf59iVwFDAAqP6p/COwGvC4BZIkSVpoKcKc3kfPgcf61Nz7HSHwXQRMqfxfJ8n3wHHAfyrfv1TF4KtC+B04GziFmu3jdyL0gZYkSdJfa0T47f2eveCl82rufQ/YDxhCMuf2fkDoMZO7vKZUyeCrQpkF3AAcBEzI2XMaYQaGJEmSFqwJ8Pvv8N8eMO7e7D1pYAShidOzlf89aZ4H+hJ6zCTx/WshGHxVSPOAxwhNr17J2TMY2BSYbpEkSZJyNAO++ACuagff5fSrmk3opdIPeCeBlZlDWKZof2CcN4r+isFXxfA6YT21+4G5VVtHAqsCn1ogSZKkqiZWox6G67vC9F+z904FLif0Uvk6gdWZRughcyTwlTeL/o7BV8XyGXA4cDXZz3m/JoTfZy2QJElKsBRhePOTF8FDu9bc+xNwInAuyVwk8mfgZOAcQi8Z6W8ZfFVMvwKnV76qv8KcB2wDXGGBJElSAqWAesB9B8Fzp9fcOx44ELiZ0EMlaT4h9Iy5AZjpzaKFZfBVsc0gPPU9lPAUuNqJhIb0kiRJSdEEmD0DbtwE3rit5t6XCU2sHic8KkiaUYTpco8m9P2rFgy+ioJ5wP8IP8jH5Oy5ivD016b0kiQp7poB30yEq9vDVzl9QOcSeqPsC7yRwMrMBR6sfP+veaNocRh8FSWjCa3oHyH7W7xngc4ks22DJElKhgrg7WfgmlVh8rfZe6YTRscdBnyewMrMAK4FDgEmeqNocRl8FTWfEH6w5c7bmAi0JwzwkSRJiosU4UnvM1fC0G0hPTd776/AaYR+KL8lsDq/Vb7308juByMtBoOvougn4CRCp75JVVtnAT2BWyyQJEmKgRTQAPjfCfDMCTX3TiT0QLmW8NQzaT5nQSuASIvJ4Kuomk5Ym27+tdkOAU61QJIkqYQ1BubNg1t6watX1tw7BtiP0ANlbgKr80bl+78voe9feWDwVZTNBe4mzPsdl7PnUmAnCyRJkkpQM+DHb+GajjBxePaeeYSOxX2BVxJYmXnAE4SGpyO9UVSXDL4qBS8RfgA+CaSrtj4OrAb8UGfHmUIyF4GXJEmFUgF88DJc3QF+y+nVNJPQ4+QgQs+TpJlFWJv4QMJaxVKdMviqVHxI+IfgVrIXa/+Q0PSqbhr7vw+cAnxpuSVJUp3KNLF67jYY1BPm5Exb/Z3Q2+Rk4OcEVucP4FzgROBHbxblg8FXpeR74DjgArKfzE4F1gXurPXfP6fyb9kXeNtyS5KkOpECGgKPnA5PHlRz71eEniYDgGkJrM7XwNHAZYTf6qS8MPiq1EwFLgL+DeQsckdf4Kxa/d2pyj9fAvYGniZ7aLUkSdKiakT4DWNwb3j5opp73wL2B+4ifAGfNO8A/YA7Evr+VUAGX5WiOcAQwj8U7+XsuQD4Z50c40PCHJNbgdmWXJIkLbKmwG+/wLVd4eNHsvekgWcIPUyeT2Bl0sCzle9/hDeKCsHgq1KV/QPzWbKfzN4PrEVdLPP+HXA8NYdWS5Ik/Z0KYMJYuKo9/PRB9p7ZwCDCF/gfJLAyf/4AQ8ojg69KXfYQmeons28B7YB3a/33TwEuJMwt/tZyS5Kkv5QihN6X7oWb1oGZv2fvnQL8h/B7xfcJrM5Uwu9V809Zk/LM4Ks4+AY4hrC675SqrZOANQlLv9fOHGAw4ZvJ9y23JElaoBTQGHj8PHh0r5p7vwOOJQS/yQmszveEkXT/wZF0KgKDr+LiD+A84ARqtsHfAzi/1n9/Zmj13sBzlluSJOVIAeXAPfvAC+fU3Ps+oXfIIJLZOySzLOUtZC9LKRWQwVdxMovwA7Uf8FHOnrOB/erkGO8SnvwOwe6DkiQJoAkwcwpcvw6Mu7vm3hcIPUmSulrEyMr3/2RC378iwuCruEkDTxF+wL6Ys+cOYEOyB0Mvrq9Z0NBqSZKULJn5vF98AFe3h+/GZu+dS1imaF/g7QRWZy5wD2HByXHeLCo2g6/i6k3Ck9l7yH4y+yrQHphQ+d/LF/vv/wPoD5wE/GC5JUlKmsZhuaKxj8H1XWFqzkyracBlwFGEL8yTZjowADgS+NJ7RVFg8FWcfQEcAQwk/AMU/AisCrwCNKvV3z8LuIkwZ+djyy1JUoKUlcMzd8HdO9fc8yNwMnAuodVm0vwMnEqYaPZbAt+/IqqeJVDMTQLOJITgc4GlgTAgejNqG3wzf9OThE6FA4GellySpAR4725444aaWz8hhN5HSeZ81gnAKcAjwDxvEkWJT3yVBDOB6wndBCdUbZ0L/F5nx3iTMIfnnsq/WZIkxdmM+X6JGE3oMfIIyQy9rxHm8z6EoVcRZPBVUswj/EPUl/APUz58QZjLciXZQ6slSVKczQP+Rwi9ryf0/T8M7EMIv1IkGXyVNJlvIx8kP09mfyMMrT6NMMdFkiTF10zgauAw4LOEvv9rgUOAid4OijKDr5JoInAocB0wI2t7qo7+/ux/BD613JIkxdKvwOmVr18S+P5/A87CL/tVIgy+SqpfgP8j9x+rupyPkxn204ewiJIkSYqPzwgrR1xFWLonab4gLNV0BU7vUokw+CrJphOGJx1AWI4olYdjZA+tttGDJEmlLQ2MBPYC7iOZDS3HERp63p3Q968S5XJGSrq5wGOExdV3ytMxPiXM/fmaMMS6kWWXJKnkzAFuAW4n/JueNGngaeAE4CNvB5Uag68UvA18QPhHLR9+Jgyt/oowvLqFJZckqaR8D1xC/n5XiLLZwCDgnMo6SCXHoc5Stdnkd9296YSljg4nzI2RJEmlYx7JDL1/AOcDJ2LoVQkz+EqFNZcwJ6gvMNZySJKkCPsGOBa4CJhiOVTKDL5ScbxM6Pj8OPl9yixJkrQ43gf6EeY0J/FJt2LG4CsVz8fAQcCNhLV/JUmSomAEsDfwLH5Br5gw+ErF9SNhzsz5wO+WQ5IkFdEcYAjhSe+7lkNxYvCVim8aoUvk0YS5NJIkSYU2BbgU+DfJXK5JMWfwlaJhDjCUsCD8O5ZDkiQV0I/AyUB/HIGmmDL4StHyPLAPMAzn1EiSpPwbDxxI6Dkyy3Iorgy+UvS8T/gHaBBhbWFJkqR8eJnwhfsT+IW7Ys7gK0XTt1SvmzfZckiSpDo0F7iXMMVqrOVQEhh8peiaAlwAHAd8bzkkSVIdmA5cBRwBfG45lBQGXynaZhOGPO8PfGg5JElSLfwCnA6cAfxmOZQkBl8p+tLAM4Q5OM9bDkmStBg+Aw4FrgZmWA4ljcFXKh1vEZ783k6YmyNJkrQwRgN9gQeBeZZDSVTPEkgl5SvgaOAjYC8gZUkkSdICpAjLEw0lDG3+0pIoyQy+UumZAlwOvAT8ajkkSdICzAMGAG8Dv1sOJZ3BVypNc4BRlkGSJP2JWYQvySXhHF9JkiRJUswZfCVJkiRJsWbwlSRJkiTFmsFXkiRJkhRrBl9JkiRJUqwZfCVJkiRJsWbwlSRJkiTFmsFXkiRJkhRrBl9JkiRJUqwZfCVJkiRJsWbwlSRJkiTFmsFXkiRJkhRrBl9JkiRJUqwZfCVJkiRJsWbwlSRJkiTFmsFXkiRJkhRrBl9JkiRJUqwZfCVJkiRJsWbwlSRJkiTFmsFXkiRJkhRrBl9JkiRJUqwZfCVJkiRJsWbwlSRJkiTFmsFXkiRJkhRrBl9JkiRJUqwZfCVJkiRJsWbwlSRJkiTFmsFXkiRJkhRrBl9JkiRJUqwZfCVJkiRJsWbwlSRJkiTFmsFXkiRJkhRrBl9JkiRJUqwZfCVJkiRJsWbwlSRJkiTFmsFXkiRJkhRrBl9JkiRJUqwZfCVJkiRJsWbwlSRJkiTFmsFXkiRJkhRrBl9JkiRJUqwZfCVJkiRJsWbwlSRJkiTFmsFXkiRJkhRrBl9JkiRJUqwZfCVJkiRJsWbwlSRJkiTFmsFXkiRJkhRrBl9JkiRJUqwZfCVJkiRJsWbwlSRJkiTFmsFXkiRJkhRrBl9JkiRJUqwZfCVJkiRJsWbwlSRJkiTFmsFXkiRJkhRrBl9JkiRJUqwZfCVJkiRJsWbwlSRJkiTFmsFXkiRJkhRrBl9JkiRJUqwZfCVJkiRJsWbwlSRJkiTFmsFXkiRJkhRrBl9JkiRJUqwZfCVJkiRJsWbwlSRJkiTFmsFXkiRJkhRrBl9JkiRJUqwZfCVJkiRJsWbwlSRJkiTFmsFXkiRJkhRrBl9JkiRJUqwZfCVJkiRJsWbwlSRJkiTFmsFXkiRJkhRrBl9JkiRJUqwZfCVJkiRJsVbPEkiKkApgKWAekLIceTEXaAWUWwolVCOgDTCD0vo5Mwf4nvDzUZK0iAy+kqKkLXAjsBIhoCk/6gMtLIMSal3gWSBdIuebqnzdCFzs5ZOkxWPwlRQl7wFDgCuBxpajMHx8pIRpRPhyrZS8CNyOXwhK0mJzjq+kqBlMeLJRKk9jSt50S6BFYPIquM+AU4CvLYUkLT6f+EqKmpnAf4BVgF2yd2wKrApMtUZ15vfKukoLqyGwF2HCaX3LUWtpoCnhScT9wKTc3b8CpwFjrJQk1Y7NYyRFVUfgDmD9zIZ1gNeti6QYGgrsm7tpJiH0XoUzEiSp1hzqLCmqPgGOByZmNryBTyclxc+jzBd65wLXAzdg6JWkOuFyFpKi7GvgK2BroAnAl8AXQG9rIykGPmCBX+g9SJjXO9kKSVLdMPhKirrxhP5Lm1M5pfAtoAHQ09pIKmFTgLWYr2/By8ARwHdWSJLqjsFXUtSlCVl3CcJ83zKA5wi/MHa2PpJK1MbAhNxNHwOHEx4ES5LqkHN8JZWCmcAFhKanVXoTFv6VpFLTl9C3IMuPwMnYw0+S8sLgK6lUTCJ0OH0xe+MWwG/WRlIJOQ+4M3fTVOBs4HGrI0n5YfCVVEo+B04APsps+BnoZV0klYh7gHNyN80hLFk0iDC1Q5KUB87xlVRqviMscbQV0AzgW+BDYE9rIynC3mSBX9TdCZwBTLNCkpQ/Bl9JpehT4HfCSOcGAO8TFrvcwtpIiqBfgLUJDQuyPAscQxi8IknKI4OvpFL1LiH0bkzltI2XgE7AGtZGUsSsR1iYPMu7hA7OE6yOJOWfwVdSqZpHaIq6PGFlIwD+B+wAtLY+kiJiN8IXc1m+Ag4DXrM6klQYKUsgqcStQGgKUzV1rgIYD7SyNpKK7HTgovk3P1D5iuvvYSnCnOURwBTvAklRYPCVFAddgbuANbM3uMavpGK6DThowbvmEP/fwa4kNO2a5Z0gKQoMvpLiYgvgdmDFzIYdgcesi6QieAXYJLlv/ymgH/Cjd4KkqHCOr6S4+Bz4CdgSaARhuPM0YBtrI6mAvgHWITzWTaAPgCMJy85JUmQYfCXFyftAGtiUyp9vowiPgNe2NpIKYA4h9P6UzLf/HXA08LJ3gqSoMfhKipM08CawNLAuldM5HiU8Bm5rfSTl2T+A15P51qcApwL3eRdIiqIySyApZqYB5xHybpVewBfWRlIenQAMS+Zbnw1cDgzxLpAUVQZfSXH0I3ASMCazYSawFeG3M0mqa1dWvhJqKHAF/oiVFGF2dZYUZxsCdwDtMxu2JCwsKUl1ZThZC4knzzDgAML8XkmKLOf4SoqzrwkNVrcEmgB8BnxPWOpIkmrrU2B9QoOBBBoHHEb40SpJkWbwlRR3HwMzCOv81gMYC1QAG1kbSbUwjdDB+fdkvv0v/7+9e4/Wqq7zOP5GLhIiimUl1agTWihDhqKII3LzXhlpTqatmia8kNfKvGRTWqlLrMbUWjlhXlIxLUFHC60Q0gTyAshVARGIi4CA4OFyODzzx/c5ueEAcg7n8uz9e7/W2kvd/zzr9+X7HPmc/dvfH3FsUaKzvCTljcFXUtGVgMnAHkBvyrMNniz/R1frI6mBBgJT01z6auAy4DG7QFJeONxKUgrWAzcAD2dvnko8Dpak+voq8Nc0l74BuB6PLZKUMwZfSalYCXwbGFd7YzPxxOZtayOpHm4Afp3m0kvAr4BbgRo7QVKeONVZUmp6EkdvdKu90Rt4zrpI2gmPAqelu/yRwBBguZ0gKW98x1dSahYTE0gHAh0hRj/PBQZbG0k7MA3om+7yxwMXED8yJSl3DL6SUvQqMZxlINAOYEr5X461NpK2YSUxwbkqzeXPAc4nflRKUi4ZfCWl6mWgLXGqUWuAvwA9yOyBlqSyvsDsNJe+ArgQ+JNdICnPHG4lKVXVwM3AfdmbpwOTrI2kjC8Az6e59CrgWuLVZknKNYOvpJStAa4mjvX9p+OJbY2S9D3gwTSXXgPcDtxBDMGXpFxzqrMkQXfgXuCw2hufwCe/UupGAGelu/z7ga8Dq+wESUXgO76SBG8QA68GAHsBLAWmAmdaGylJzwMnprv8p4GLiB+FklQIBl9JCq8RAXgg0B5gBrG/r7+1kZKyFOgFbEhz+TOA84CZdoKkIjH4StI7arPusUAbgHFAV2Las6Q0HA0sSHPpS4ChwDN2gaSiMfhK0js2Ay8C+xJHdrYCeITY8vgR6yMV3qdJNvWtAa4EHrILJBWRU50laUtVxCDXLY7vOJF4FCKpuK4A/i/NpW8CfgrcBZTsBElF5FRnSdq2g4hJz0fV3jgYmGVdpEK6E/ivdJc/HLiMeOorSYXkVmdJ2rY3genEbKvOACuAicDZ1kYqlHHA4HSX/0ci9K6wEyQVmcFXkrZvQfkaBHQAmE3shT7e2kiF8DrQm9jrm6DJxATnuXaCpKIz+ErSjr0CrAOOA9oC/A3Yj5h+JSm/qoEjgWVpLn8+cD7wdztBUgoMvpK0YyVgEtCJeDDUCmIATl/gQOsj5dYJxBj3BK0Cvgk8ZhdISoVTnSXp3W0AfgT8NnvzFGCetZFy6VLgL2kufSNwIzDCLpCUEoOvJO2clcBVxBwcINJwX+JvkZLy4yfALWkuvQT8ErgVqLETJKXE44wkqX56AvcBH6+90Q8YY12kXBgNnJTu8kcC55Lsa82SUuY7vpJUP4uJCagDgY4Q251XAidbG6mizQKOIR57JmgiMcxqoZ0gKUUGX0mqvznAauKM33YAE4A9iL9US6o8VUCv8hc3QbOJJ71T7ARJqTL4SlLDvEyE3mMoz0t4ijji6GBrI1Wc44DpaS59OXAJ8SNKkpLlcCtJaphqYBhwT/bmZ4CZ1kaqKF8Gnktz6euA64BH7AJJqTP4SlLDrQG+CzxZe6NEPFlaa22kinA9W/12Kh01xPTmO0j2tWZJeodTnSVp1x0K3A/0qL1xFDDeukgt6hHgc+kufwQwlJi9J0nJ8x1fSdp1y4iBsQOAvQD+QYx+HmxtpBYxmZg+l6ixwNeBpXaCJAWDryQ1jnnEEJn+QHuI8amtia3PkprPKmKCc1Way58OnEf8Mk6SVGbwlaTGM414l64v5Z+vY4BDiL3QkppHb+C1NJe+hHjS+1e7QJK2ZPCVpMZTAl4E3ks8cGoF8DDwWeCD1kdqcp8nfuGUoLXAt4Hf2gWSVJdTnSWpcVUB1wKPZW/2A1ZYG6lJfY/4RVOCqoEfk+wAa0l6d051lqSm0ZWY9Nyr9kYPYuCOpMb3G+BLaS69BNwFXEIcsSZJ2ga3OktS03gTmEo87N0HYrzqVOBMayM1qvHAqeku/0ngYtxUIkk7ZPCVpKazkDjZaCDQAWAGsSdxoLWRGsVS4EhgY5rLfwk4nzg9TZK0AwZfSWpas4B1xDFHbSDGrR4AHGZtpF12BLAozaUvAC4AJtoFkvTuDL6S1LRKxKu9exCnrOwGMAo4EfiI9ZEa7FRim3OCVgOXsdUQPUnS9jnVWZKa3nrgBrYaODuQZJ9USbvsCuCJNJe+AbgeeNAukKSdZ/CVpOaxkvi7+rjaG7X7n2usjVQvdwA3pbn0EjAcuA1/dEhSvXickSQ1r57EySvdam+cTLJPrqR6GwMMSHf5I4EhwHI7QZLqx3d8Jal5LQbmETudOwLMJg7fPNHaSDv0OvGifKKPOscDQ4lp8ZKkejL4SlLzexVYRYTfdgDPAXsTf6mXVFc18EnigOwEzSGOLZpsJ0hSwxh8JallTCWON+pD+WfxaKAvcKC1keo4nmRT33LgYuApu0CSGs7hVpLUMjYCNwP3ZW+eAMy1NtIWLiHe7U1QFXAdcQKaJGkXGHwlqeWsAa4Gnqy9UUNMel5nbSQAhgE/S3PpNcDPiSHWm+0ESdo1TnWWpJbXHbgXOKz2xnHA09ZFiXsc+FS6y3+AGGa1yk6QpF3nO76S1PLeIAZeDQQ6QUyvXQCcZm2UqFnAMeku/2ngImCpnSBJjcPgK0mV4TUiAA8E2gO8BLwH+Hdro8S8TUxwXpvm8mcC55b/KUlqJAZfSaocM4h3+Y4lJj7zJ+AI4GBro4QcRzzxTdAS4ALgGbtAkhqXw60kqXJsIub43AmUam9+GphubZSILwPj01z6GuC7wB/tAklqfAZfSaosVcD3gEezNwcAq62NCu4HwD1pLn0T8FPgbrtAkpqGU50lqTIdTGSAo2pv9AImWhcV1EPAmekufzhwGfHUV5LUBHzHV5Iq0wpih3N/oDPAImLazRnWRgUzmZjqlqjRwKXl77wkqYkYfCWpci0AFgKDgA4A04itOv2sjQriTaAnsD7N5U8mJjjPtRMkqWkZfCWpss0iMsFxQFuIAz4PAQ61NiqAo4lzqxM0Hzgf+LtdIElNz+ArSZWtBEwCOgG9Kc9meJiY9tzF+ijHzgDGpLn0VcA3gcfsAklqHk51lqTKtwH4EfDb7M1BwBvWRjn1HeB3aS59I3AjMMIukKTm41RnScqPA4jjTvrW3ugOvGxdlDN3A19Jc+kl4HbgCuLoMklSMzH4SlK+9ATuBz5We+PTbHXor1TBxhPv9SZqFDAEWGYnSFLz8h1fScqXxcAc4vSXjgCvEHuhB1kb5aB5jwCq01z+BGKY1UI7QZKan8FXkvJnDvAWccZvO4BniH3Qh1kbVaga4EhgSZrLnw2cB0yxEySpZRh8JSmfphCh9xjKgwpHEY+B97c2qkCfIrY5J2g5cAnwlF0gSS3Hqc6SlE/VwDDg3uzNk4AF1kYV5pvAH9Jc+jrgOuARu0CSWpbBV5Lyaw3wXeDJ2htVwABiW6lUCW4BfpLm0muAW4E7iGnOkqQW5FRnScq/Q4lJzz1qbwzCfZVqeWOIX8QkagQwFFhpJ0hSy/MdX0nKv2XALCJj7AUwl5h+daK1UQt5jRhmtTnN5Y8jQu9SO0GSKoPBV5KKYR4RgAcA7SEGCe0N9LY2ambrgV4k+6hzOjHBeaadIEmVw+ArScUxjXiXsC/ln++jgaOBrtZGzWgQMDnNpS8BLiSe+EqSKojDrSSpOGqAnwH/S2aYzqeAV62NmsnXgLFpLn0tcA3whF0gSZXH4CtJxVJFHJ/yWO2NTcT+53XWRk3sJmB4mkuvBn4M3GMXSFJlcqqzJBVTV2LSc6/aG32AZ62LmsjjxO6CRP0auIQ4YkySVIF8x1eSiulN4p3ffsA+AAuA+cBp1kaNbDrw7+kufzRwMbDCTpCkymXwlaTiWgAsAgYCHQAmESOfEw4pamSriWOL1qa5/JeA84kTxCRJFczgK0nFNpN4vbc/0Abgz8AngG7WRo3gOOIQ6QQtAC4AJtoFklT5DL6SVGwl4mSZjsBRlIcaPgicDnzA+mgXnEXs803QauAyMkPkJEmVzanOklR864HrgYezNwcQf3uXGuI6YESaS98A3ED8/kiSlBNOdZakdOwP3AscW3vjk8CL1kX19BBwZppLLwG/AC4njg6TJOWEW50lKR2rgSlE8N0XYAnxEvAZ1kY76QXg+HSXPwr4Bm6WkKTcMfhKUloWA/OISc8dIc48gjj3SNqRZcQE5/VpLn88MBRYaCdIUv4YfCUpPbOBVUT4bQcwFjgI6GFttANHA6+nufS5wHnEoDhJUg4ZfCUpTVOJ4436UP5/we+BU4APWRttw2nAX9Nc+grgIuApu0CS8supzpKUpo3AzcD92ZuDgDesjbZyNfBomkuvIgZYj7ILJEmSpPzqQhzFWqq9Pg6lkpdX+bor0xuJXZuAYcDu/piQpPxzq7MkpW0NMInY8vxBgOXEEUdnWZvkPUNscU7Ug8CVwNt2giTln8FXkvQG8Cox7KoTwCvE5N5B1iZZC4hhVtVpLn8scCGw1E6QpGIw+EqSAF4jAvBAoD3As8Sgq8OtTXI2A71INvXNJCY4z7QTJKk4DL6SpFoziMxzLDHxmceAAcD+1iYpJwDPp7n0JcAFJDvAWpIkSUpDB+DnRAAuAaXdoTTfIU/JXN9Id5jVW8AQoJU/BiRJkqTi2xcYSSYUHACljYbCwl8/TTf0VgPXAm39+kuSJEnpOBiYQCYcDDIYFvoanW7oLQHDgT392ktScfmOryRpW1YA04lXfDsDzAVWASdZm8KZDRxD7G9P0Gjg0nLPS5IKyuArSdqeBeVrEPHuLxOAjsShvyqG9cTk7lVpLn8ycC7xex1JUoEZfCVJOzKLyEbHUX7/8SmgN9DV2hRCP2BamktfQBxb9He7QJIkSdLuwM1ADeV3IneD0iu+F5v766vpvtO7EjjHr7YkSZKkrM7AA2TCw35QWmt4zO11Q7qhdwNwBe56kyRJkrQNBwBjyYSIPgbIXF6PpBt6NwO3Un5nXZKUDn/bKUnaWauAKcRroe+DeEnyNWCwtcmNqcQL24l6FPgWsNpOkKS0GHwlSfWxGJgDDCQGPDMZaAP0tTYV7y2gJ1CV5vInAucDC+0ESUqPwVeSVF9ziAzVH2gHMAboAXSzNhWtT/kPL9GePY/YsSBJkiRJO6Ut8AOgmsw7lFN8f7Ziry+k+17vMuB0v7KSJEmSGqITcCeZkLEPlFYYMivu+n66obcKuAho5ddVkiRJUkN1AUaTCRs9DZoVdd2XbujdBNwEtPdrKkmSJGlXHUrMuPpn6DjDwFkR18R0Q28JGEGcPy1JksOtJEm7bBkwCxgA7AUwHagp31DL/aEcAWxIc/njgKHAUjtBkgQGX0lS45gHLCeybnuI5NGVmPas5tcL+EeaS59OTHCeaRdIkiRJamytgSuJh4z/3HI6wS3HzX59Jt3tzYuBU/wqSpIkSWpKewC3AZsph5E9oLTIMNps1xXpht61wNf8CkqSJElqDu8HRpEJJd2gVGMobfLrjnRD70bg+8T50pIkSZLULA4CJpIJJ6cYTJv0Gpv2BOc7gT392kmStsfhVpKkpvAmMA3oB+wD8CrwNnCCtWl0C4lhVjVpLn80cDGwwk6QJG2PwVeS1FQWAIuAgUAHgL8BXYDDrU2jqS7Xc3may58EnA/MtRMkSZIktZTdiKdx68hsTR3j1uRGu45Pd3vzAjwqWpIkSVKFaA8MAzZRDi1toTTX0LrL16Xpht5VwBf9akmSJEmqJJ2BB8mElwOhtN7w2uDr5nRD73rgCnxdS5IkSVIF2h8YRybE9DPANuj6Y7qhdzNwO+V3xiVJkiSpEh0OTCcTZoYYZOt1vQql3dINviOB9/k1kiTVl9uEJEnNaTEwj5j03BHgxfK/9LE27+pt4jcHb6W5/PHAUOL0JkmSJEmqaK2AIcBaMk/zHvdp7rtex6T7pHcOcLRfHUmSJEl50g64DthIJuBMN9xu9/pyuqF3OTDYr4wkSZKkPNoTuItMyOkCpbcMuXWuH6YbequIc6B38+siSZIkKa+6AKPJhJ0jDbpbXL9PN/RuAm4GdvdrIkmSJCnvugOTyISeLxp4SyUoTUk39JaA+4G9/XpIkhqDU50lSS3tDeAVYtJzJ4CXgTZA34SLspKY4LwuzeWPBS4Elvr1kCRJklQkZwOryDz1eyjhp72Hp/ukdwbQ06+DJEmSpCJqA1wFrCcThF5IMPR+Pt3Quxg42a+CJEmSpKogxZkAAAZoSURBVCLrAPwc2Ew5DO0DpeUJhd5r0g29a4jznVv5NZAkSZJUdPsCI8mEon9LJPT+Jt3QW02c69zW9pckSZKUioOBCWTC0WcLHnonpD3BeThxrrMkSZIkJaUPMJdMQPpOQUPvIih1TDf0jibOc5YkSZKkJH0OWE4mKN1dsNC7GUqHpBt6JwGH2OaSJEmSUrYbcClQRSYwPVOg4HtquqH3daC/LS5JkiRJsDvwY6CGcmjqCKV/FCD0Xp5u6F0JnGNrS5IkSdI7OgMPkAlPB5W3Cec19N6RbujdAFwJtLatJUmSJGlLBwBjyYSoE3Maep9ON/RuBm4jzmuWJEmSJG1DT2AmmTD1rZyF3teg1C7d4DuSOKdZkiRJkrQDpwCLyQSq/8lJ6N0ApX9NN/ROALravpIkSZL07loB5wJryASrp3IQfPunG3pnA0fbupIkSZK089oC1wHVlMNVOyjNqeDQe266oXcZcLotK0mSJEn11wm4k0zI+jCU1ldg6B2WbuhdB1xMnMcsSZIkSWqADwFPkglbx1ZY6H0i3dC7CbgJaG+bSpIkSdKuORSYTCZ0DamQ0DsDSq3SDb4jiPOXJUmSJEmNYAAwn0zwurGFQ+8aKHVJN/SOBf7FtpQkSZKkxvUlYBWZADaqBYPvUemG3mnEecuSJEmSpEbWGrgK2EAmiE1rgdB7TrqhdzFxzrIkSZIkqYnsAdwObKYcxvaF0lvNGHp/mG7oXQt8jThnWZIkSZLUhN4PPEomlB3RTKH34XRD70bgWuJ8ZUmSJElSMzgImEgmnJ3dxKH3xXRDbwn4NbCnbSdJkiRJzasPMJtMQPt+E4XeFVB6b7qhdzSwn+0mSZIkSS3jDGA5maD2QBME3x51w+BfgOkUP/S+BHS3zSRJkiSp5ewGXAKsIxPYXmjE0Pu5umHwWeBA4HhgEcUNvfOJ85MlSZIkSS2sPTAM2EQ5tHWC0rJGCL3X1A2DrwC9Mp/9VWA1xQu9q4Av2lqSJEmSVDk6Aw+SCW/ddzH03l03DC4FPrPV57YBvkdMPS5K6F0PXFlemyRJkiSpguwPjCMT4gY3MPQ+WzcMvg0MZdtn2HYE7qAYoXczcU5yB9tJkiRJkirT4Ww1dOrKeobeRVDquGUY3ARcD7TbwefuBzxB/oPvSGBf20iSJEmSKtupwBIygW74TobezVA6qG4YvAfYayc+txvwIvkNveOJ85ElSZIkSRWuFTAEWEsm2D2zE8H3pLph8M/Ah+vx2X2BeeQv9M4hzkWWJEmSJOVEO+A6MkOn2kNp4Q5C77fqhsGXgR4N+OyzgDfJT+hdDgy2ZSRJkiQpf/YE7iIT8rpCqXobofeWumFwIXBCAz+3NXA5MR250kPv28DFxHnIkiRJkqQc6gKMJhP2Ttwq9P6pbhh8C/jKLn7ue4BbgBoqN/TWADcDu9smkiRJkpRv3YFJZELfpeXQOx9K7bYMgxuBa2icM2zfB/yeyg2+DxDnH0uSJEmSCmAAsIBM8LsRSt3rnmH7S+Jc3sbyUeA5Ki/0jgUOsC0kSZIkqVjOBlax/TD4OPCBJvjco4BXqJzQOwPoaTtIkiRJUvG0Aa5i20Onngc+1oSf/VngDVo+9C4GTrYVJEmSJKm4OgC/ILY114bBucT5u02pFfB1oIqWC71riPONW9kGkiRJklRs7wceJcLgSuA/mulzdwduADbR/KG3mjjXuK1//JIkSZKUhm7ABOBq4tzd5rI3cB/NH3yHE+caS5IkSZIS8lGgUwt87keAMTRf6B1NnGcsSZIkSVKzOQyYStOH3snAoZZbkiRJktQSTgIW0XShdz7Q3zJLkiRJklrSfxLTlhs79K4EzrG8kiRJkqSW1hb4b2AjjRd6NwBX0rxDuyRJkiRJ2q6OwK/Y8mzhhl6bgduI84olSZIkSaoYHwT+wK4H31HAvpZTkiRJklSJugEv0PDQOwHoahklSZIkSZWsH/A69Q+9s4GjLZ8kSZIkKQ++QExl3tnQuxw43bJJkiRJkvKiNXA5sI53D73rgIuB3SybJEmSJClP3gPcCtSw/dC7CRgGtLdckiRJkqQ8ei/wO7YffEcAnS2TJEmSJCnPPgr8jbqhdyywv+WRJEmSJBVBb2Jqc23onQ70tCySJEmSpCIZDKwAlgKnWg5JkrbU2hJIkpR7rwLtgGeBuyyHJElb+n/95kn0hJKPWQAAACV0RVh0ZGF0ZTpjcmVhdGUAMjAxMi0xMi0xOVQxMzo0ODo0OS0wNjowMH4MJ0MAAAAldEVYdGRhdGU6bW9kaWZ5ADIwMTItMDktMDJUMTQ6NDQ6NTYtMDU6MDBSpOYkAAAAAElFTkSuQmCC;" vertex="1" parent="1">
          <mxGeometry x="399" y="577" width="281.1" height="273" as="geometry" />
        </mxCell>
        <mxCell id="422qtvT163gtj_b05qDn-2" value="&amp;lt;그림 2-2&amp;gt; &amp;nbsp;1개의 화살표 이미지를 회전" style="text;html=1;strokeColor=none;fillColor=none;align=center;verticalAlign=middle;whiteSpace=wrap;rounded=0;dashed=1;fontSize=20;" vertex="1" parent="1">
          <mxGeometry x="368" y="871" width="342" height="30" as="geometry" />
        </mxCell>
      </root>
    </mxGraphModel>
  </diagram>
</mxfile>
